<svg width="28" height="28" viewBox="0 0 28 28" fill="none" xmlns="http://www.w3.org/2000/svg">
<g clip-path="url(#clip0_58_354)">
<path d="M14 -0.00830078C6.265 -0.00830078 0 6.2567 0 13.9917C0 20.1867 4.0075 25.4192 9.5725 27.2742C10.2725 27.3967 10.535 26.9767 10.535 26.6092C10.535 26.2767 10.5175 25.1742 10.5175 24.0017C7 24.6492 6.09 23.1442 5.81 22.3567C5.6525 21.9542 4.97 20.7117 4.375 20.3792C3.885 20.1167 3.185 19.4692 4.3575 19.4517C5.46 19.4342 6.2475 20.4667 6.51 20.8867C7.77 23.0042 9.7825 22.4092 10.5875 22.0417C10.71 21.1317 11.0775 20.5192 11.48 20.1692C8.365 19.8192 5.11 18.6117 5.11 13.2567C5.11 11.7342 5.6525 10.4742 6.545 9.4942C6.405 9.1442 5.915 7.7092 6.685 5.7842C6.685 5.7842 7.8575 5.4167 10.535 7.2192C11.655 6.9042 12.845 6.7467 14.035 6.7467C15.225 6.7467 16.415 6.9042 17.535 7.2192C20.2125 5.3992 21.385 5.7842 21.385 5.7842C22.155 7.7092 21.665 9.1442 21.525 9.4942C22.4175 10.4742 22.96 11.7167 22.96 13.2567C22.96 18.6292 19.6875 19.8192 16.5725 20.1692C17.08 20.6067 17.5175 21.4467 17.5175 22.7592C17.5175 24.6317 17.5 26.1367 17.5 26.6092C17.5 26.9767 17.7625 27.4142 18.4625 27.2742C21.2422 26.3366 23.6577 24.5506 25.3687 22.1677C27.0797 19.7849 28 16.9252 28 13.9917C28 6.2567 21.735 -0.00830078 14 -0.00830078Z" fill="#F8F8F8"/>
</g>
<defs>
<clipPath id="clip0_58_354">
<rect width="28" height="28" fill="white" transform="translate(0 -0.00830078)"/>
</clipPath>
</defs>
</svg>
