<svg width="28" height="28" viewBox="0 0 28 28" fill="none" xmlns="http://www.w3.org/2000/svg">
<g clip-path="url(#clip0_58_350)">
<path d="M14 -0.00830078C10.2008 -0.00830078 9.723 0.00919922 8.23025 0.0756992C6.7375 0.145699 5.72075 0.380199 4.83 0.726699C3.89523 1.07727 3.04875 1.62865 2.35025 2.34195C1.63695 3.04045 1.08557 3.88693 0.735 4.8217C0.3885 5.7107 0.15225 6.7292 0.084 8.2167C0.0175 9.71295 0 10.1889 0 13.9935C0 17.7944 0.0175 18.2705 0.084 19.7632C0.154 21.2542 0.3885 22.2709 0.735 23.1617C1.09375 24.0822 1.5715 24.8627 2.35025 25.6414C3.12725 26.4202 3.90775 26.8997 4.82825 27.2567C5.72075 27.6032 6.73575 27.8394 8.22675 27.9077C9.72125 27.9742 10.1972 27.9917 14 27.9917C17.8027 27.9917 18.277 27.9742 19.7715 27.9077C21.2607 27.8377 22.281 27.6032 23.1718 27.2567C24.1059 26.9059 24.9518 26.3545 25.6497 25.6414C26.4285 24.8627 26.9062 24.0822 27.265 23.1617C27.6098 22.2709 27.846 21.2542 27.916 19.7632C27.9825 18.2705 28 17.7944 28 13.9917C28 10.1889 27.9825 9.71295 27.916 8.21845C27.846 6.7292 27.6098 5.7107 27.265 4.8217C26.9144 3.88693 26.3631 3.04045 25.6497 2.34195C24.9513 1.62865 24.1048 1.07727 23.17 0.726699C22.2775 0.380199 21.259 0.143949 19.7698 0.0756992C18.2752 0.00919922 17.801 -0.00830078 13.9965 -0.00830078H14ZM12.7452 2.5152H14.0018C17.7397 2.5152 18.1825 2.52745 19.6577 2.5957C21.0227 2.65695 21.7647 2.8862 22.2582 3.07695C22.911 3.3307 23.3783 3.6352 23.8682 4.1252C24.3582 4.6152 24.661 5.0807 24.9148 5.7352C25.1073 6.22695 25.3347 6.96895 25.396 8.33395C25.4643 9.8092 25.4783 10.2519 25.4783 13.9882C25.4783 17.7244 25.4643 18.1689 25.396 19.6442C25.3347 21.0092 25.1055 21.7494 24.9148 22.243C24.6887 22.85 24.3307 23.3993 23.8665 23.8512C23.3765 24.3412 22.911 24.6439 22.2565 24.8977C21.7665 25.0902 21.0245 25.3177 19.6577 25.3807C18.1825 25.4472 17.7397 25.4629 14.0018 25.4629C10.2638 25.4629 9.81925 25.4472 8.344 25.3807C6.979 25.3177 6.23875 25.0902 5.74525 24.8977C5.13771 24.6724 4.5878 24.315 4.13525 23.8512C3.67023 23.399 3.31157 22.8491 3.08525 22.2412C2.8945 21.7494 2.66525 21.0075 2.604 19.6424C2.5375 18.1672 2.5235 17.7244 2.5235 13.9847C2.5235 10.2449 2.5375 9.8057 2.604 8.33045C2.667 6.96545 2.8945 6.22345 3.087 5.72995C3.34075 5.0772 3.64525 4.60995 4.13525 4.11995C4.62525 3.62995 5.09075 3.3272 5.74525 3.07345C6.23875 2.88095 6.979 2.65345 8.344 2.59045C9.6355 2.53095 10.136 2.51345 12.7452 2.5117V2.5152ZM21.4743 4.8392C21.2536 4.8392 21.0352 4.88265 20.8313 4.96708C20.6275 5.05151 20.4423 5.17526 20.2863 5.33126C20.1303 5.48726 20.0066 5.67246 19.9221 5.87629C19.8377 6.08012 19.7943 6.29858 19.7943 6.5192C19.7943 6.73982 19.8377 6.95828 19.9221 7.16211C20.0066 7.36593 20.1303 7.55114 20.2863 7.70714C20.4423 7.86314 20.6275 7.98689 20.8313 8.07132C21.0352 8.15574 21.2536 8.1992 21.4743 8.1992C21.9198 8.1992 22.3471 8.0222 22.6622 7.70714C22.9773 7.39208 23.1542 6.96476 23.1542 6.5192C23.1542 6.07364 22.9773 5.64632 22.6622 5.33126C22.3471 5.0162 21.9198 4.8392 21.4743 4.8392ZM14.0018 6.8027C13.0481 6.78782 12.1011 6.9628 11.2157 7.31745C10.3304 7.67209 9.5244 8.19932 8.84476 8.86844C8.16513 9.53756 7.62539 10.3352 7.25697 11.2149C6.88856 12.0946 6.69883 13.0388 6.69883 13.9926C6.69883 14.9463 6.88856 15.8905 7.25697 16.7702C7.62539 17.65 8.16513 18.4476 8.84476 19.1167C9.5244 19.7858 10.3304 20.3131 11.2157 20.6677C12.1011 21.0223 13.0481 21.1973 14.0018 21.1824C15.8892 21.153 17.6894 20.3825 19.0137 19.0374C20.338 17.6922 21.0803 15.8803 21.0803 13.9926C21.0803 12.1049 20.338 10.2929 19.0137 8.94776C17.6894 7.6026 15.8892 6.83215 14.0018 6.8027ZM14.0018 9.32445C14.6147 9.32445 15.2216 9.44517 15.7878 9.67972C16.3541 9.91427 16.8686 10.2581 17.302 10.6915C17.7354 11.1248 18.0792 11.6394 18.3137 12.2056C18.5483 12.7719 18.669 13.3788 18.669 13.9917C18.669 14.6046 18.5483 15.2115 18.3137 15.7778C18.0792 16.344 17.7354 16.8585 17.302 17.2919C16.8686 17.7253 16.3541 18.0691 15.7878 18.3037C15.2216 18.5382 14.6147 18.6589 14.0018 18.6589C12.7639 18.6589 11.5768 18.1672 10.7015 17.2919C9.82623 16.4167 9.3345 15.2295 9.3345 13.9917C9.3345 12.7539 9.82623 11.5667 10.7015 10.6915C11.5768 9.81618 12.7639 9.32445 14.0018 9.32445Z" fill="#F8F8F8"/>
</g>
<defs>
<clipPath id="clip0_58_350">
<rect width="28" height="28" fill="white" transform="translate(0 -0.00830078)"/>
</clipPath>
</defs>
</svg>
