<svg width="28" height="28" viewBox="0 0 28 28" fill="none" xmlns="http://www.w3.org/2000/svg">
<g clip-path="url(#clip0_58_352)">
<path d="M0 1.9972C0 0.889449 0.9205 -0.00830078 2.05625 -0.00830078H25.9438C27.0795 -0.00830078 28 0.889449 28 1.9972V25.9862C28 27.094 27.0795 27.9917 25.9438 27.9917H2.05625C0.9205 27.9917 0 27.094 0 25.9862V1.9972ZM8.65025 23.4312V10.7874H4.4485V23.4312H8.65025ZM6.55025 9.0602C8.015 9.0602 8.92675 8.0907 8.92675 6.8762C8.9005 5.63545 8.01675 4.6922 6.57825 4.6922C5.13975 4.6922 4.2 5.6372 4.2 6.8762C4.2 8.0907 5.11175 9.0602 6.52225 9.0602H6.55025ZM15.1392 23.4312V16.3699C15.1392 15.9919 15.1672 15.6139 15.2793 15.3444C15.582 14.5902 16.2733 13.8079 17.4353 13.8079C18.956 13.8079 19.5632 14.9664 19.5632 16.6674V23.4312H23.765V16.1792C23.765 12.2942 21.693 10.4882 18.928 10.4882C16.6985 10.4882 15.6993 11.7132 15.1392 12.5759V12.6197H15.1112L15.1392 12.5759V10.7874H10.9392C10.9917 11.9739 10.9392 23.4312 10.9392 23.4312H15.1392Z" fill="#F8F8F8"/>
</g>
<defs>
<clipPath id="clip0_58_352">
<rect width="28" height="28" fill="white" transform="translate(0 -0.00830078)"/>
</clipPath>
</defs>
</svg>
