<svg width="21" height="28" viewBox="0 0 21 28" fill="none" xmlns="http://www.w3.org/2000/svg">
<path d="M5.2807 28C5.03509 28 4.82018 27.9087 4.63596 27.7261C4.45175 27.5435 4.35965 27.3304 4.35965 27.087C4.35965 26.8435 4.45175 26.6304 4.63596 26.4478C4.82018 26.2652 5.03509 26.1739 5.2807 26.1739C5.52632 26.1739 5.74123 26.2652 5.92544 26.4478C6.10965 26.6304 6.20175 26.8435 6.20175 27.087C6.20175 27.3304 6.10965 27.5435 5.92544 27.7261C5.74123 27.9087 5.52632 28 5.2807 28ZM15.7193 28C15.4737 28 15.2588 27.9087 15.0746 27.7261C14.8904 27.5435 14.7982 27.3304 14.7982 27.087C14.7982 26.8435 14.8904 26.6304 15.0746 26.4478C15.2588 26.2652 15.4737 26.1739 15.7193 26.1739C15.9649 26.1739 16.1798 26.2652 16.364 26.4478C16.5482 26.6304 16.6404 26.8435 16.6404 27.087C16.6404 27.3304 16.5482 27.5435 16.364 27.7261C16.1798 27.9087 15.9649 28 15.7193 28ZM4.66667 25.5652C3.74561 25.5652 2.8962 25.3674 2.11842 24.9717C1.34064 24.5761 0.695906 24.0435 0.184211 23.3739C0.122807 23.2725 0.0767544 23.1812 0.0460526 23.1C0.0153509 23.0188 0 22.9275 0 22.8261C0 22.5826 0.0818713 22.3696 0.245614 22.187C0.409357 22.0043 0.634503 21.913 0.921053 21.913C1.0848 21.913 1.22295 21.9435 1.33553 22.0043C1.4481 22.0652 1.55556 22.1565 1.65789 22.2783C1.90351 22.6232 2.21564 22.9123 2.5943 23.1457C2.97295 23.379 3.37719 23.5464 3.80702 23.6478L7.64474 19.0522L6.01754 14C5.9152 13.6551 5.8845 13.3101 5.92544 12.9652C5.96637 12.6203 6.07895 12.2957 6.26316 11.9913L9.21053 7.30435H6.32456L3.99123 11.0174L1.90351 9.73913L4.97368 4.86957H11.9737C12.5263 4.86957 12.9715 5.02174 13.3092 5.32609C13.6469 5.63043 13.8772 5.91449 14 6.17826L14.6447 7.63913C15.0541 8.61304 15.7142 9.40942 16.625 10.0283C17.5358 10.6471 18.5643 10.9565 19.7105 10.9565V13.3913C18.2778 13.3913 16.9678 13.0514 15.7807 12.3717C14.5936 11.692 13.6418 10.7942 12.9254 9.67826L10.7149 13.1783L16.0263 16.4348V23.7391H16.3947C16.9883 23.7391 17.5409 23.6072 18.0526 23.3435C18.5643 23.0797 18.9942 22.7246 19.3421 22.2783C19.4444 22.1565 19.5519 22.0652 19.6645 22.0043C19.777 21.9435 19.9152 21.913 20.0789 21.913C20.345 21.913 20.5651 22.0043 20.739 22.187C20.913 22.3696 21 22.5826 21 22.8261C21 22.9275 20.9846 23.0188 20.9539 23.1C20.9232 23.1812 20.8772 23.2725 20.8158 23.3739C20.3041 24.0435 19.6696 24.5761 18.9123 24.9717C18.155 25.3674 17.3158 25.5652 16.3947 25.5652H4.66667ZM6.9386 23.7391H13.5702V18.1391L9.27193 15.4609L10.5 19.4783L6.9386 23.7391ZM14.7982 4.86957C14.1228 4.86957 13.5446 4.63116 13.0636 4.15435C12.5826 3.67754 12.3421 3.10435 12.3421 2.43478C12.3421 1.76522 12.5826 1.19203 13.0636 0.715217C13.5446 0.238406 14.1228 0 14.7982 0C15.4737 0 16.0519 0.238406 16.5329 0.715217C17.0139 1.19203 17.2544 1.76522 17.2544 2.43478C17.2544 3.10435 17.0139 3.67754 16.5329 4.15435C16.0519 4.63116 15.4737 4.86957 14.7982 4.86957Z" fill="url(#paint0_linear_40_662)"/>
<defs>
<linearGradient id="paint0_linear_40_662" x1="10.5" y1="0" x2="10.5" y2="28" gradientUnits="userSpaceOnUse">
<stop stop-color="#38B2E8"/>
<stop offset="1" stop-color="#055B81"/>
</linearGradient>
</defs>
</svg>
