<svg width="16" height="10" viewBox="0 0 16 10" fill="none" xmlns="http://www.w3.org/2000/svg">
<path d="M2.66667 9.5C1.93333 9.5 1.30556 9.24821 0.783333 8.74464C0.261111 8.24107 0 7.63571 0 6.92857C0 6.31786 0.202778 5.77679 0.608333 5.30536C1.01389 4.83393 1.53333 4.53929 2.16667 4.42143L1.7 4.03571H0V3.07143H3L4.66667 4.03571L7.33333 3.07143H9.43333L8.4 1.78571H6.66667V0.5H9.03333L10.4333 2.23571L12.6667 1.14286V3.07143H11.1333L12.3 4.55C12.4667 4.48571 12.6361 4.4375 12.8083 4.40536C12.9806 4.37321 13.1556 4.35714 13.3333 4.35714C14.0667 4.35714 14.6944 4.60893 15.2167 5.1125C15.7389 5.61607 16 6.22143 16 6.92857C16 7.63571 15.7389 8.24107 15.2167 8.74464C14.6944 9.24821 14.0667 9.5 13.3333 9.5C12.6 9.5 11.9722 9.24821 11.45 8.74464C10.9278 8.24107 10.6667 7.63571 10.6667 6.92857C10.6667 6.63929 10.7194 6.35804 10.825 6.08482C10.9306 5.81161 11.0778 5.55714 11.2667 5.32143L10.9333 4.93571L8.66667 8.21429H6.66667L5.33333 7.08929C5.27778 7.76429 4.99444 8.33482 4.48333 8.80089C3.97222 9.26696 3.36667 9.5 2.66667 9.5ZM2.66667 8.21429C3.03333 8.21429 3.34722 8.08839 3.60833 7.83661C3.86944 7.58482 4 7.28214 4 6.92857C4 6.575 3.86944 6.27232 3.60833 6.02054C3.34722 5.76875 3.03333 5.64286 2.66667 5.64286C2.3 5.64286 1.98611 5.76875 1.725 6.02054C1.46389 6.27232 1.33333 6.575 1.33333 6.92857C1.33333 7.28214 1.46389 7.58482 1.725 7.83661C1.98611 8.08839 2.3 8.21429 2.66667 8.21429ZM13.3333 8.21429C13.7 8.21429 14.0139 8.08839 14.275 7.83661C14.5361 7.58482 14.6667 7.28214 14.6667 6.92857C14.6667 6.575 14.5361 6.27232 14.275 6.02054C14.0139 5.76875 13.7 5.64286 13.3333 5.64286C12.9667 5.64286 12.6528 5.76875 12.3917 6.02054C12.1306 6.27232 12 6.575 12 6.92857C12 7.28214 12.1306 7.58482 12.3917 7.83661C12.6528 8.08839 12.9667 8.21429 13.3333 8.21429ZM7.96667 6.92857L9.73333 4.35714H7.56667L5.16667 5.225L7.16667 6.92857H7.96667Z" fill="#ADADAD"/>
</svg>
