<svg width="19" height="24" viewBox="0 0 19 24" fill="none" xmlns="http://www.w3.org/2000/svg">
<path d="M9.5 12C8.19375 12 7.125 10.92 7.125 9.6C7.125 8.28 8.19375 7.2 9.5 7.2C10.8063 7.2 11.875 8.28 11.875 9.6C11.875 10.92 10.8063 12 9.5 12ZM16.625 9.84C16.625 5.484 13.4781 2.4 9.5 2.4C5.52188 2.4 2.375 5.484 2.375 9.84C2.375 12.648 4.69062 16.368 9.5 20.808C14.3094 16.368 16.625 12.648 16.625 9.84ZM9.5 0C14.4875 0 19 3.864 19 9.84C19 13.824 15.8294 18.54 9.5 24C3.17063 18.54 0 13.824 0 9.84C0 3.864 4.5125 0 9.5 0Z" fill="url(#paint0_linear_42_1454)"/>
<defs>
<linearGradient id="paint0_linear_42_1454" x1="9.5" y1="0" x2="9.5" y2="24" gradientUnits="userSpaceOnUse">
<stop stop-color="#A6D440"/>
<stop offset="1" stop-color="#517500"/>
</linearGradient>
</defs>
</svg>
