<svg width="15" height="15" viewBox="0 0 15 15" fill="none" xmlns="http://www.w3.org/2000/svg">
<path d="M8.17243 13.6301V14.9875H6.82757V13.6301V13.619L6.81646 13.6177C5.39236 13.4582 4.17066 12.8687 3.15096 11.849C2.13126 10.8293 1.54179 9.60764 1.38229 8.18354L1.38104 8.17243H1.36986H0.0125V6.82757H1.36986H1.38104L1.38229 6.81646C1.54179 5.39236 2.13126 4.17066 3.15096 3.15096C4.17066 2.13126 5.39236 1.54179 6.81646 1.38229L6.82757 1.38104V1.36986V0.0125H8.17243V1.36986V1.38104L8.18354 1.38229C9.60764 1.54179 10.8293 2.13126 11.849 3.15096C12.8687 4.17066 13.4582 5.39236 13.6177 6.81646L13.619 6.82757H13.6301H14.9875V8.17243H13.6301H13.619L13.6177 8.18354C13.4582 9.60764 12.8687 10.8293 11.849 11.849C10.8293 12.8687 9.60764 13.4582 8.18354 13.6177L8.17243 13.619V13.6301ZM7.5 12.307C8.82751 12.307 9.96083 11.8377 10.8992 10.8992C11.8377 9.96083 12.307 8.82751 12.307 7.5C12.307 6.17248 11.8377 5.03917 10.8992 4.10075C9.96083 3.16233 8.82751 2.69298 7.5 2.69298C6.17248 2.69298 5.03917 3.16233 4.10075 4.10075C3.16233 5.03917 2.69298 6.17248 2.69298 7.5C2.69298 8.82751 3.16233 9.96083 4.10075 10.8992C5.03917 11.8377 6.17248 12.307 7.5 12.307ZM7.5 10.2272C6.74992 10.2272 6.10811 9.9603 5.57391 9.42609C5.0397 8.89189 4.77277 8.25008 4.77277 7.5C4.77277 6.74992 5.0397 6.10811 5.57391 5.57391C6.10811 5.0397 6.74992 4.77277 7.5 4.77277C8.25008 4.77277 8.89189 5.0397 9.42609 5.57391C9.9603 6.10811 10.2272 6.74992 10.2272 7.5C10.2272 8.25008 9.9603 8.89189 9.42609 9.42609C8.89189 9.9603 8.25008 10.2272 7.5 10.2272ZM7.5 8.88236C7.88005 8.88236 8.20571 8.74689 8.4763 8.4763C8.74689 8.20571 8.88236 7.88005 8.88236 7.5C8.88236 7.11995 8.74689 6.79429 8.4763 6.5237C8.20571 6.25311 7.88005 6.11764 7.5 6.11764C7.11995 6.11764 6.79429 6.25311 6.5237 6.5237C6.25311 6.79429 6.11764 7.11995 6.11764 7.5C6.11764 7.88005 6.25311 8.20571 6.5237 8.4763C6.79429 8.74689 7.11995 8.88236 7.5 8.88236Z" fill="url(#paint0_linear_45_2857)" stroke="url(#paint1_linear_45_2857)" stroke-width="0.025"/>
<defs>
<linearGradient id="paint0_linear_45_2857" x1="7.5" y1="0" x2="7.5" y2="15" gradientUnits="userSpaceOnUse">
<stop stop-color="#38B2E8"/>
<stop offset="1" stop-color="#055B81"/>
</linearGradient>
<linearGradient id="paint1_linear_45_2857" x1="7.5" y1="0" x2="7.5" y2="15" gradientUnits="userSpaceOnUse">
<stop stop-color="#38B2E8"/>
<stop offset="1" stop-color="#055B81"/>
</linearGradient>
</defs>
</svg>
