<svg width="28" height="28" viewBox="0 0 28 28" fill="none" xmlns="http://www.w3.org/2000/svg">
<path d="M12.4375 27.375V24.875C9.83333 24.5833 7.59896 23.5052 5.73438 21.6406C3.86979 19.776 2.79167 17.5417 2.5 14.9375H0V12.4375H2.5C2.79167 9.83333 3.86979 7.59896 5.73438 5.73438C7.59896 3.86979 9.83333 2.79167 12.4375 2.5V0H14.9375V2.5C17.5417 2.79167 19.776 3.86979 21.6406 5.73438C23.5052 7.59896 24.5833 9.83333 24.875 12.4375H27.375V14.9375H24.875C24.5833 17.5417 23.5052 19.776 21.6406 21.6406C19.776 23.5052 17.5417 24.5833 14.9375 24.875V27.375H12.4375ZM13.6875 22.4375C16.1042 22.4375 18.1667 21.5833 19.875 19.875C21.5833 18.1667 22.4375 16.1042 22.4375 13.6875C22.4375 11.2708 21.5833 9.20833 19.875 7.5C18.1667 5.79167 16.1042 4.9375 13.6875 4.9375C11.2708 4.9375 9.20833 5.79167 7.5 7.5C5.79167 9.20833 4.9375 11.2708 4.9375 13.6875C4.9375 16.1042 5.79167 18.1667 7.5 19.875C9.20833 21.5833 11.2708 22.4375 13.6875 22.4375ZM13.6875 18.6875C12.3125 18.6875 11.1354 18.1979 10.1562 17.2188C9.17708 16.2396 8.6875 15.0625 8.6875 13.6875C8.6875 12.3125 9.17708 11.1354 10.1562 10.1562C11.1354 9.17708 12.3125 8.6875 13.6875 8.6875C15.0625 8.6875 16.2396 9.17708 17.2188 10.1562C18.1979 11.1354 18.6875 12.3125 18.6875 13.6875C18.6875 15.0625 18.1979 16.2396 17.2188 17.2188C16.2396 18.1979 15.0625 18.6875 13.6875 18.6875ZM13.6875 16.1875C14.375 16.1875 14.9635 15.9427 15.4531 15.4531C15.9427 14.9635 16.1875 14.375 16.1875 13.6875C16.1875 13 15.9427 12.4115 15.4531 11.9219C14.9635 11.4323 14.375 11.1875 13.6875 11.1875C13 11.1875 12.4115 11.4323 11.9219 11.9219C11.4323 12.4115 11.1875 13 11.1875 13.6875C11.1875 14.375 11.4323 14.9635 11.9219 15.4531C12.4115 15.9427 13 16.1875 13.6875 16.1875Z" fill="url(#paint0_linear_40_658)"/>
<defs>
<linearGradient id="paint0_linear_40_658" x1="13.6875" y1="0" x2="13.6875" y2="27.375" gradientUnits="userSpaceOnUse">
<stop stop-color="#EE5931"/>
<stop offset="1" stop-color="#B32A05"/>
</linearGradient>
</defs>
</svg>
