<svg width="28" height="27" viewBox="0 0 28 27" fill="none" xmlns="http://www.w3.org/2000/svg">
<path d="M12.7501 26.2498V23.7498C10.1459 23.4581 7.91155 22.38 6.04697 20.5154C4.18238 18.6508 3.10426 16.4164 2.81259 13.8123H0.312592V11.3123H2.81259C3.10426 8.70809 4.18238 6.47371 6.04697 4.60913C7.91155 2.74455 10.1459 1.66642 12.7501 1.37476V-1.12524H15.2501V1.37476C17.8543 1.66642 20.0886 2.74455 21.9532 4.60913C23.8178 6.47371 24.8959 8.70809 25.1876 11.3123H27.6876V13.8123H25.1876C24.8959 16.4164 23.8178 18.6508 21.9532 20.5154C20.0886 22.38 17.8543 23.4581 15.2501 23.7498V26.2498H12.7501ZM14.0001 21.3123C16.4168 21.3123 18.4793 20.4581 20.1876 18.7498C21.8959 17.0414 22.7501 14.9789 22.7501 12.5623C22.7501 10.1456 21.8959 8.08309 20.1876 6.37476C18.4793 4.66642 16.4168 3.81226 14.0001 3.81226C11.5834 3.81226 9.52092 4.66642 7.81259 6.37476C6.10426 8.08309 5.25009 10.1456 5.25009 12.5623C5.25009 14.9789 6.10426 17.0414 7.81259 18.7498C9.52092 20.4581 11.5834 21.3123 14.0001 21.3123ZM14.0001 17.5623C12.6251 17.5623 11.448 17.0727 10.4688 16.0935C9.48967 15.1143 9.00009 13.9373 9.00009 12.5623C9.00009 11.1873 9.48967 10.0102 10.4688 9.03101C11.448 8.05184 12.6251 7.56226 14.0001 7.56226C15.3751 7.56226 16.5522 8.05184 17.5313 9.03101C18.5105 10.0102 19.0001 11.1873 19.0001 12.5623C19.0001 13.9373 18.5105 15.1143 17.5313 16.0935C16.5522 17.0727 15.3751 17.5623 14.0001 17.5623ZM14.0001 15.0623C14.6876 15.0623 15.2761 14.8175 15.7657 14.3279C16.2553 13.8383 16.5001 13.2498 16.5001 12.5623C16.5001 11.8748 16.2553 11.2862 15.7657 10.7966C15.2761 10.307 14.6876 10.0623 14.0001 10.0623C13.3126 10.0623 12.724 10.307 12.2345 10.7966C11.7449 11.2862 11.5001 11.8748 11.5001 12.5623C11.5001 13.2498 11.7449 13.8383 12.2345 14.3279C12.724 14.8175 13.3126 15.0623 14.0001 15.0623Z" fill="url(#paint0_linear_14_363)"/>
<defs>
<linearGradient id="paint0_linear_14_363" x1="14.0001" y1="-1.12524" x2="14.0001" y2="26.2498" gradientUnits="userSpaceOnUse">
<stop stop-color="#A6D440"/>
<stop offset="1" stop-color="#517500"/>
</linearGradient>
</defs>
</svg>
