<svg width="27" height="27" viewBox="0 0 27 27" fill="none" xmlns="http://www.w3.org/2000/svg">
<path d="M4.8125 12.5L4.4375 10.625C4.1875 10.5208 3.95312 10.4115 3.73438 10.2969C3.51562 10.1823 3.29167 10.0417 3.0625 9.875L1.25 10.4375L0 8.3125L1.4375 7.0625C1.39583 6.79167 1.375 6.52083 1.375 6.25C1.375 5.97917 1.39583 5.70833 1.4375 5.4375L0 4.1875L1.25 2.0625L3.0625 2.625C3.29167 2.45833 3.51562 2.31771 3.73438 2.20312C3.95312 2.08854 4.1875 1.97917 4.4375 1.875L4.8125 0H7.3125L7.6875 1.875C7.9375 1.97917 8.17188 2.08854 8.39062 2.20312C8.60938 2.31771 8.83333 2.45833 9.0625 2.625L10.875 2.0625L12.125 4.1875L10.6875 5.4375C10.7292 5.70833 10.75 5.97917 10.75 6.25C10.75 6.52083 10.7292 6.79167 10.6875 7.0625L12.125 8.3125L10.875 10.4375L9.0625 9.875C8.83333 10.0417 8.60938 10.1823 8.39062 10.2969C8.17188 10.4115 7.9375 10.5208 7.6875 10.625L7.3125 12.5H4.8125ZM6.0625 8.75C6.75 8.75 7.33854 8.50521 7.82812 8.01562C8.31771 7.52604 8.5625 6.9375 8.5625 6.25C8.5625 5.5625 8.31771 4.97396 7.82812 4.48438C7.33854 3.99479 6.75 3.75 6.0625 3.75C5.375 3.75 4.78646 3.99479 4.29688 4.48438C3.80729 4.97396 3.5625 5.5625 3.5625 6.25C3.5625 6.9375 3.80729 7.52604 4.29688 8.01562C4.78646 8.50521 5.375 8.75 6.0625 8.75ZM16 26.25L15.4375 23.625C15.0833 23.5 14.7552 23.349 14.4531 23.1719C14.151 22.9948 13.8542 22.7917 13.5625 22.5625L11.0625 23.375L9.3125 20.375L11.3125 18.625C11.2708 18.25 11.25 17.875 11.25 17.5C11.25 17.125 11.2708 16.75 11.3125 16.375L9.3125 14.625L11.0625 11.625L13.5625 12.4375C13.8542 12.2083 14.151 12.0052 14.4531 11.8281C14.7552 11.651 15.0833 11.5 15.4375 11.375L16 8.75H19.5L20.0625 11.375C20.4167 11.5 20.7448 11.651 21.0469 11.8281C21.349 12.0052 21.6458 12.2083 21.9375 12.4375L24.4375 11.625L26.1875 14.625L24.1875 16.375C24.2292 16.75 24.25 17.125 24.25 17.5C24.25 17.875 24.2292 18.25 24.1875 18.625L26.1875 20.375L24.4375 23.375L21.9375 22.5625C21.6458 22.7917 21.349 22.9948 21.0469 23.1719C20.7448 23.349 20.4167 23.5 20.0625 23.625L19.5 26.25H16ZM17.75 21.25C18.7917 21.25 19.6771 20.8854 20.4062 20.1562C21.1354 19.4271 21.5 18.5417 21.5 17.5C21.5 16.4583 21.1354 15.5729 20.4062 14.8438C19.6771 14.1146 18.7917 13.75 17.75 13.75C16.7083 13.75 15.8229 14.1146 15.0938 14.8438C14.3646 15.5729 14 16.4583 14 17.5C14 18.5417 14.3646 19.4271 15.0938 20.1562C15.8229 20.8854 16.7083 21.25 17.75 21.25Z" fill="url(#paint0_linear_40_763)"/>
<defs>
<linearGradient id="paint0_linear_40_763" x1="13.0938" y1="0" x2="13.0938" y2="26.25" gradientUnits="userSpaceOnUse">
<stop stop-color="#A6D440"/>
<stop offset="1" stop-color="#517500"/>
</linearGradient>
</defs>
</svg>
