<svg width="14" height="14" viewBox="0 0 14 14" fill="none" xmlns="http://www.w3.org/2000/svg">
<path d="M9.46741 9.46741C8.78726 10.1476 7.96503 10.4875 7 10.4875C6.03497 10.4875 5.21274 10.1476 4.53259 9.46741C3.85244 8.78726 3.5125 7.96503 3.5125 7C3.5125 6.03497 3.85244 5.21274 4.53259 4.53259C5.21274 3.85244 6.03497 3.5125 7 3.5125C7.96503 3.5125 8.78726 3.85244 9.46741 4.53259C10.1476 5.21274 10.4875 6.03497 10.4875 7C10.4875 7.96503 10.1476 8.78726 9.46741 9.46741ZM7 13.9875C6.03329 13.9875 5.12499 13.8041 4.27495 13.4373C3.42468 13.0704 2.68518 12.5725 2.05634 11.9437C1.4275 11.3148 0.929627 10.5753 0.562727 9.72505C0.195932 8.87501 0.0125 7.96671 0.0125 7C0.0125 6.03329 0.195932 5.12499 0.562727 4.27495C0.929627 3.42468 1.4275 2.68518 2.05634 2.05634C2.68518 1.4275 3.42468 0.929627 4.27495 0.562727C5.12499 0.195932 6.03329 0.0125 7 0.0125C7.96671 0.0125 8.87501 0.195932 9.72505 0.562727C10.5753 0.929627 11.3148 1.4275 11.9437 2.05634C12.5725 2.68518 13.0704 3.42468 13.4373 4.27495C13.8041 5.12499 13.9875 6.03329 13.9875 7C13.9875 7.96671 13.8041 8.87501 13.4373 9.72505C13.0704 10.5753 12.5725 11.3148 11.9437 11.9437C11.3148 12.5725 10.5753 13.0704 9.72505 13.4373C8.87501 13.8041 7.96671 13.9875 7 13.9875ZM7 12.6125C8.56658 12.6125 9.89395 12.0687 10.9813 10.9813C12.0687 9.89395 12.6125 8.56658 12.6125 7C12.6125 5.43342 12.0687 4.10605 10.9813 3.01866C9.89395 1.93127 8.56658 1.3875 7 1.3875C5.43342 1.3875 4.10605 1.93127 3.01866 3.01866C1.93127 4.10605 1.3875 5.43342 1.3875 7C1.3875 8.56658 1.93127 9.89395 3.01866 10.9813C4.10605 12.0687 5.43342 12.6125 7 12.6125Z" fill="url(#paint0_linear_45_2841)" stroke="url(#paint1_linear_45_2841)" stroke-width="0.025"/>
<defs>
<linearGradient id="paint0_linear_45_2841" x1="7" y1="0" x2="7" y2="14" gradientUnits="userSpaceOnUse">
<stop stop-color="#38B2E8"/>
<stop offset="1" stop-color="#055B81"/>
</linearGradient>
<linearGradient id="paint1_linear_45_2841" x1="7" y1="0" x2="7" y2="14" gradientUnits="userSpaceOnUse">
<stop stop-color="#38B2E8"/>
<stop offset="1" stop-color="#055B81"/>
</linearGradient>
</defs>
</svg>
