<svg width="133" height="49" viewBox="0 0 133 49" fill="none" xmlns="http://www.w3.org/2000/svg">
<path d="M39.7459 28.3706C39.9115 28.8506 40.0274 29.399 40.0937 30.0162C40.193 30.5987 40.2428 31.1986 40.2428 31.8158C40.2428 32.4328 40.193 33.0497 40.0937 33.6666C40.0274 34.2494 39.928 34.7636 39.7954 35.2091C39.2655 37.1289 38.2054 38.7397 36.6153 40.0425C35.0252 41.3106 33.2032 42.2361 31.1493 42.8189C29.1285 43.4017 27.0249 43.6073 24.8385 43.4359C22.6852 43.2645 20.7638 42.6991 19.0743 41.739C18.0142 41.1221 17.1032 40.3679 16.3413 39.4768C15.5794 38.5857 14.9334 37.5915 14.4033 36.4946C14.2046 36.1176 14.0721 35.6892 14.0058 35.2091C13.9727 34.695 14.0224 34.2153 14.1549 33.7694C14.2874 33.2897 14.5027 32.8783 14.8009 32.5355C15.099 32.1586 15.5131 31.9015 16.0432 31.7643C16.3744 31.6957 16.7388 31.6615 17.1364 31.6615C17.567 31.6615 17.9811 31.7301 18.3786 31.867C18.7762 31.9698 19.1406 32.1586 19.4718 32.4327C19.8031 32.6728 20.0681 33.0155 20.2669 33.4611C20.6313 34.1808 21.1448 34.8493 21.8073 35.4662C22.503 36.049 23.2318 36.529 23.9937 36.906C25.0869 37.2829 26.1802 37.4372 27.2734 37.3686C28.3997 37.3003 29.4101 37.0432 30.3046 36.5973C31.2321 36.1518 31.9775 35.5519 32.5407 34.7978C33.1039 34.0094 33.3854 33.1183 33.3854 32.1241C33.3854 31.3016 33.2695 30.6332 33.0376 30.119C32.8056 29.5704 32.4744 29.1248 32.0438 28.782C31.6462 28.4051 31.1493 28.0965 30.553 27.8565C29.9898 27.6168 29.3604 27.4109 28.6647 27.2395C27.8697 27.0681 27.058 26.9483 26.2298 26.8797C25.4348 26.811 24.6232 26.7254 23.795 26.6226C22.9668 26.5198 22.1552 26.3826 21.3601 26.2112C20.5651 26.0398 19.7866 25.7827 19.0246 25.4399C17.5008 24.7887 16.3413 23.7946 15.5462 22.4578C14.7512 21.121 14.2708 19.6813 14.1052 18.1388C13.9727 16.5963 14.1549 15.0709 14.6518 13.5627C15.1487 12.0202 15.9438 10.7005 17.037 9.60357C18.0971 8.60951 19.3559 7.90681 20.8135 7.49547C22.3042 7.04986 23.9441 6.79278 25.7329 6.72422C26.7268 6.68994 27.7206 6.72422 28.7144 6.82705C29.7414 6.92989 30.7187 7.10128 31.6462 7.34122C32.607 7.58117 33.4847 7.88967 34.2799 8.26673C35.1081 8.64378 35.8201 9.0894 36.4166 9.60357C36.8472 9.94635 37.2778 10.4091 37.7084 10.9918C38.139 11.5403 38.4703 12.1401 38.7023 12.7914C38.9342 13.4084 39.0005 14.0083 38.9012 14.591C38.8349 15.1737 38.4871 15.6708 37.8576 16.0821C37.3277 16.4249 36.814 16.5791 36.317 16.5449C35.8534 16.4763 35.406 16.322 34.9754 16.0821C34.5448 15.8079 34.1307 15.4994 33.7332 15.1566C33.3356 14.8138 32.9713 14.5053 32.64 14.2311C31.7455 13.5455 30.6359 13.0828 29.3107 12.8428C27.9856 12.6029 26.7433 12.5515 25.5839 12.6886C24.8551 12.7914 24.1759 12.9628 23.5465 13.2028C22.9171 13.4427 22.3705 13.7683 21.9067 14.1797C21.4761 14.591 21.1282 15.1052 20.8632 15.7222C20.6313 16.3049 20.5485 16.9733 20.6147 17.7274C20.6479 18.2759 20.7969 18.7386 21.062 19.1157C21.3601 19.4928 21.7079 19.8013 22.1055 20.0412C22.5361 20.2812 22.9999 20.4697 23.4968 20.6068C23.9937 20.7439 24.4907 20.8467 24.9876 20.9153C26.4783 21.121 27.969 21.2752 29.4598 21.378C30.9506 21.4809 32.4081 21.8237 33.8325 22.4064C35.2902 22.9891 36.5325 23.7775 37.5593 24.7716C38.5864 25.7656 39.3153 26.9654 39.7459 28.3706ZM54.1264 31.5072C54.8553 32.2955 55.3852 32.8783 55.7165 33.2552C56.081 33.598 56.3295 33.8551 56.4618 34.0265C56.6275 34.1979 56.7436 34.301 56.8096 34.3351C56.8759 34.3693 56.992 34.4723 57.1577 34.6437C57.3233 34.8151 57.5883 35.0893 57.9526 35.4662C58.3171 35.809 58.8636 36.3747 59.5924 37.1631C60.1887 37.78 60.6691 38.5 61.0334 39.3225C61.4309 40.1108 61.3979 40.9678 60.934 41.8933C60.6691 42.3734 60.3708 42.7161 60.0395 42.9217C59.7083 43.0931 59.344 43.1617 58.9464 43.1275C58.5821 43.0931 58.1845 42.9732 57.7539 42.7674C57.3563 42.5618 56.9587 42.3047 56.5612 41.9961C55.7993 41.4136 55.0704 40.7452 54.3749 39.991C53.6793 39.2026 53.1161 38.6028 52.6855 38.1914C52.3872 37.8828 52.2051 37.6772 52.1388 37.5744C52.0724 37.5058 52.0061 37.4543 51.9401 37.4201C51.8738 37.3515 51.8075 37.2829 51.7412 37.2146C51.5092 36.9746 51.2608 36.7346 50.9958 36.4946C50.7308 36.2546 50.4659 35.9975 50.2009 35.7233V37.7288C50.2009 38.1057 50.2174 38.3799 50.2504 38.5513C50.2504 38.894 50.2339 39.1511 50.2009 39.3225C50.1013 39.6997 50.0518 40.0596 50.0518 40.4024C50.0185 40.5738 49.9855 40.7452 49.9525 40.9165C49.9192 41.0535 49.8696 41.2078 49.8033 41.3792C49.77 41.4478 49.737 41.4993 49.704 41.5335C49.704 41.5677 49.704 41.6192 49.704 41.6878C49.6707 41.7564 49.6377 41.8077 49.6044 41.8421C49.6044 41.8763 49.5879 41.9278 49.5549 41.9961C49.3892 42.3389 49.1243 42.6646 48.7597 42.9732C48.1304 43.3502 47.3518 43.4529 46.4243 43.2816C45.9274 43.1788 45.5463 42.9903 45.2813 42.7161C44.9833 42.5103 44.7844 42.2191 44.6851 41.8421C44.6188 41.6707 44.5525 41.4993 44.4864 41.3279C44.4531 41.1221 44.4036 40.9336 44.3373 40.7622C44.271 40.5908 44.238 40.4365 44.238 40.2996C44.238 40.1282 44.238 39.991 44.238 39.8882V10.6319C44.238 10.4262 44.238 10.2206 44.238 10.0149C44.238 9.80924 44.2545 9.60357 44.2875 9.3979C44.3208 9.19223 44.3538 9.0037 44.3868 8.83231C44.4531 8.62665 44.5194 8.43812 44.5858 8.26673C44.7181 7.92395 44.8837 7.64972 45.0827 7.44406C45.2483 7.27267 45.4139 7.15269 45.5796 7.08414C45.7782 6.9813 45.9604 6.89561 46.126 6.82705C46.2916 6.79277 46.4741 6.77564 46.6727 6.77564C46.9047 6.74136 47.1198 6.72422 47.3188 6.72422C47.7824 6.72422 48.2463 6.86133 48.7102 7.13555C49.1408 7.44406 49.4555 7.83825 49.6542 8.31814C49.9192 8.96943 50.0518 9.60357 50.0518 10.2206C50.0848 10.5634 50.1181 11.0947 50.1511 11.8145C50.1841 12.5001 50.2009 13.0142 50.2009 13.357V13.5627C50.2339 14.6938 50.2504 15.7736 50.2504 16.8019C50.2504 17.8303 50.2504 18.9443 50.2504 20.144C50.2174 21.3438 50.2009 22.4921 50.2009 23.589C50.2009 24.6516 50.2009 25.7141 50.2009 26.7769V27.3423C50.4659 27.0681 50.7308 26.811 50.9958 26.571C51.2608 26.3313 51.5092 26.0742 51.7412 25.7998C51.8738 25.697 52.0061 25.5772 52.1388 25.4399L52.6855 24.8745C53.1161 24.4288 53.6793 23.8289 54.3749 23.0748C55.0704 22.2864 55.7993 21.6009 56.5612 21.0181C57.3893 20.4011 58.1845 20.0241 58.9464 19.887C59.7416 19.7498 60.4041 20.1612 60.934 21.121C61.3979 22.0465 61.4309 22.9206 61.0334 23.7432C60.6691 24.5316 60.1887 25.2685 59.5924 25.9541C58.8636 26.7424 58.3171 27.3252 57.9526 27.7024C57.5883 28.0452 57.3233 28.3023 57.1577 28.4737C56.992 28.6106 56.8759 28.6963 56.8096 28.7308C56.7436 28.7649 56.6275 28.8677 56.4618 29.0391C56.3295 29.1763 56.081 29.4334 55.7165 29.8104C55.3852 30.1531 54.8553 30.7189 54.1264 31.5072ZM71.1123 21.6866C72.1062 21.1724 73.1495 20.8125 74.2426 20.6068C75.3361 20.3668 76.4127 20.3154 77.4726 20.4525C78.566 20.5554 79.6093 20.8467 80.6032 21.3266C81.597 21.7722 82.5245 22.4235 83.386 23.2805C84.2472 24.1717 84.9097 25.1487 85.3736 26.2112C85.8373 27.274 86.1685 28.4563 86.3675 29.7591C86.4998 30.6502 86.7152 31.473 87.0135 32.2269C87.3115 32.9811 87.6262 33.7353 87.9575 34.4894C88.3218 35.2436 88.6531 35.9975 88.9513 36.7517C89.2826 37.5058 89.5476 38.2942 89.7465 39.117C89.9122 39.9053 89.8458 40.6765 89.5476 41.4307C89.2826 42.1504 88.7194 42.596 87.8582 42.7674C87.3613 42.8704 86.8809 42.836 86.417 42.6646C85.9864 42.4591 85.5888 42.1849 85.2245 41.8421C84.8602 41.4649 84.5289 41.0709 84.2307 40.6595C83.9657 40.2139 83.7173 39.8025 83.4853 39.4253C82.7234 40.4536 81.8952 41.2593 81.0008 41.8421C80.1063 42.3904 79.0296 42.7503 77.7708 42.9217C76.7107 43.0589 75.7004 43.0931 74.7396 43.0245C73.779 42.9561 72.7519 42.7674 71.6588 42.4591C70.2343 42.0818 69.0584 41.4307 68.1309 40.5051C67.2364 39.5454 66.5405 38.4485 66.0436 37.2146C65.58 35.9462 65.3315 34.5922 65.2982 33.1525C65.2652 31.7127 65.4309 30.2904 65.7952 28.8848C66.259 27.034 66.9546 25.5256 67.8824 24.3602C68.8099 23.1948 69.8866 22.3036 71.1123 21.6866ZM72.3546 27.7024C71.8907 28.1822 71.5264 28.7479 71.2612 29.399C70.9962 30.0504 70.8306 30.7359 70.7643 31.4557C70.7313 32.1757 70.7976 32.8954 70.9632 33.6154C71.1288 34.3351 71.3938 34.9691 71.7581 35.5178C72.0894 35.9975 72.6526 36.4089 73.4478 36.7517C74.2426 37.0603 75.0708 37.2487 75.9323 37.3174C76.9261 37.386 77.7873 37.1115 78.5162 36.4946C79.2781 35.8776 79.8413 35.1064 80.2056 34.1808C80.6032 33.2211 80.7853 32.2098 80.7523 31.1473C80.7193 30.0504 80.4375 29.0562 79.9076 28.1651C79.51 27.5137 78.9801 27.034 78.3175 26.7254C77.688 26.417 77.009 26.2627 76.2801 26.2627C75.5512 26.2283 74.8224 26.3484 74.0938 26.6226C73.398 26.8626 72.8182 27.2224 72.3546 27.7024ZM109.227 20.6582C109.492 21.3095 109.509 22.0293 109.277 22.8177C109.078 23.6061 108.697 24.1203 108.134 24.3602C107.836 24.4973 107.438 24.6173 106.941 24.7201C106.444 24.7887 105.898 24.8571 105.301 24.9258C104.738 24.9944 104.175 25.0459 103.612 25.0801C103.049 25.1142 102.568 25.1316 102.171 25.1316C102.204 26.1599 102.237 27.2224 102.27 28.3194C102.303 29.3819 102.336 30.4273 102.37 31.4557C102.403 32.484 102.419 33.4782 102.419 34.4379C102.419 35.3635 102.403 36.2033 102.37 36.9575C102.37 37.4717 102.37 38.0715 102.37 38.7571C102.37 39.4082 102.32 40.0425 102.221 40.6595C102.154 41.2764 102.038 41.8247 101.873 42.3047C101.707 42.7503 101.459 43.0418 101.127 43.1788C100.1 43.6243 99.1562 43.7445 98.2947 43.5386C97.4666 43.3672 96.8703 43.0074 96.506 42.4591C96.2411 42.0135 96.0421 41.4993 95.9098 40.9165C95.7772 40.2996 95.6778 39.6824 95.6115 39.0654C95.5785 38.4143 95.5617 37.7971 95.5617 37.2146C95.595 36.5973 95.6115 36.0661 95.6115 35.6205C95.6445 34.1808 95.6613 32.5526 95.6613 30.7359C95.6943 28.8848 95.7109 27.034 95.7109 25.1828H94.9655C94.5679 25.1828 94.0545 25.1828 93.4252 25.1828C92.8287 25.1487 92.216 25.0972 91.5864 25.0285C90.9902 24.9258 90.427 24.8059 89.897 24.6687C89.3671 24.4973 88.986 24.2574 88.7541 23.9489C88.3898 23.5033 88.1579 23.0234 88.0585 22.5092C87.9922 21.9951 88.0252 21.5152 88.1579 21.0695C88.3235 20.5897 88.5719 20.1783 88.9032 19.8355C89.2345 19.4585 89.6156 19.2185 90.0462 19.1157C90.6424 18.9443 91.4871 18.8586 92.5803 18.8586C93.6737 18.8243 94.7005 18.8243 95.6613 18.8586C95.628 18.5158 95.6115 18.1902 95.6115 17.8817C95.6115 17.5389 95.595 17.2133 95.5617 16.9048C95.5287 16.4934 95.5122 15.9793 95.5122 15.3623C95.5122 14.711 95.5452 14.0768 95.6115 13.4598C95.7109 12.8086 95.86 12.2087 96.0586 11.6602C96.2576 11.0775 96.539 10.6319 96.9036 10.3234C97.4005 9.91207 97.8974 9.68926 98.3943 9.65498C98.9243 9.58643 99.4047 9.65498 99.8353 9.86065C100.299 10.0663 100.68 10.3748 100.978 10.7862C101.31 11.1632 101.541 11.5917 101.674 12.0716C101.773 12.4829 101.856 12.9799 101.922 13.5627C101.989 14.1111 102.022 14.6938 102.022 15.3108C102.055 15.9279 102.071 16.5449 102.071 17.1619C102.071 17.7789 102.071 18.3444 102.071 18.8586H102.568C103.065 18.8586 103.645 18.8415 104.307 18.8072C104.97 18.7729 105.616 18.7901 106.245 18.8586C106.908 18.9272 107.504 19.0986 108.034 19.3728C108.564 19.6127 108.962 20.0412 109.227 20.6582ZM128.64 36.289C129.038 36.1862 129.435 36.1176 129.833 36.0832C130.264 36.049 130.644 36.1005 130.976 36.2375C131.34 36.3747 131.638 36.6147 131.87 36.9575C132.102 37.2658 132.218 37.7114 132.218 38.2942C132.218 38.7056 132.119 39.0999 131.92 39.4768C131.721 39.8538 131.473 40.1965 131.175 40.5051C130.876 40.8138 130.545 41.0879 130.181 41.3279C129.816 41.5335 129.468 41.7049 129.137 41.8421C128.177 42.2877 127.067 42.6304 125.808 42.8704C124.582 43.1102 123.307 43.1959 121.982 43.1275C120.193 43.0589 118.47 42.6991 116.814 42.0477C115.191 41.3621 113.915 40.2481 112.987 38.7056C112.126 37.1972 111.613 35.5178 111.447 33.6666C111.282 31.8158 111.364 30.0675 111.696 28.4222C112.06 26.4341 112.673 24.823 113.534 23.589C114.429 22.3207 115.489 21.3095 116.714 20.5554C118.205 19.6641 119.878 19.2014 121.733 19.1671C123.588 19.1328 125.361 19.5099 127.05 20.2983C128.177 20.8125 129.187 21.5152 130.081 22.4064C130.976 23.2633 131.655 24.3088 132.119 25.5427C132.251 25.8513 132.351 26.2283 132.417 26.6741C132.516 27.1197 132.582 27.5994 132.615 28.1136C132.649 28.5936 132.649 29.0736 132.615 29.5533C132.582 30.0333 132.5 30.4618 132.367 30.8387C132.168 31.4557 131.92 31.9357 131.622 32.2784C131.324 32.6212 130.943 32.8783 130.479 33.0497C130.015 33.2211 129.452 33.3409 128.789 33.4096C128.16 33.444 127.398 33.4782 126.503 33.5123C125.709 33.5468 124.963 33.5639 124.267 33.5639C123.572 33.5639 122.859 33.5639 122.131 33.5639C121.402 33.5297 120.64 33.5123 119.845 33.5123C119.083 33.4782 118.222 33.444 117.261 33.4096C117.162 34.0951 117.245 34.695 117.509 35.2091C117.807 35.6892 118.205 36.1005 118.702 36.4433C119.199 36.7517 119.762 36.9917 120.392 37.1631C121.021 37.3344 121.634 37.4372 122.23 37.4717C123.356 37.54 124.433 37.4543 125.46 37.2146C126.487 36.9401 127.547 36.6318 128.64 36.289ZM126.503 26.314C125.874 25.5601 125.212 25.0115 124.516 24.6687C123.986 24.4288 123.423 24.326 122.826 24.3602C122.263 24.3602 121.717 24.4459 121.187 24.6173C120.226 24.8571 119.414 25.3713 118.752 26.1599C118.685 26.2283 118.57 26.3997 118.404 26.6741C118.238 26.9138 118.073 27.1709 117.907 27.4454C117.774 27.7195 117.675 27.9766 117.609 28.2166C117.543 28.4563 117.576 28.5765 117.708 28.5765H127.448C127.414 28.0965 127.332 27.7024 127.199 27.3938C127.067 27.0511 126.835 26.6912 126.503 26.314Z" fill="#F8F8F8"/>
<path d="M2.94109 41.2707C2.54841 41.2707 2.23008 40.5461 2.23008 39.6522C2.23008 38.7583 2.54841 38.0336 2.94109 38.0336C3.33377 38.0336 3.6521 38.7583 3.6521 39.6522C3.6521 40.5461 3.33377 41.2707 2.94109 41.2707Z" fill="#D9D9D9"/>
<path d="M8.9135 41.2707C8.52082 41.2707 8.20249 40.5461 8.20249 39.6522C8.20249 38.7583 8.52082 38.0336 8.9135 38.0336C9.30618 38.0336 9.62451 38.7583 9.62451 39.6522C9.62451 40.5461 9.30618 41.2707 8.9135 41.2707Z" fill="#D9D9D9"/>
<path d="M9.83537 31.438C10.935 16.3327 7.72383 13.0706 5.98081 13.3277C1.98877 13.3277 1.74773 25.4011 2.12622 31.438C2.41506 34.585 3.02264 41.3045 3.14216 43.0077C3.26168 45.846 2.78359 47.4195 6.16007 47.4502C9.53658 47.4812 8.61027 44.2416 8.75968 42.915C9.17802 36.868 9.83537 32.2709 9.83537 31.438Z" fill="#D70A6E"/>
<path d="M4.97464 19.587C5.12655 19.587 5.2497 19.4454 5.2497 19.2708C5.2497 19.0961 5.12655 18.9545 4.97464 18.9545C4.82273 18.9545 4.69958 19.0961 4.69958 19.2708C4.69958 19.4454 4.82273 19.587 4.97464 19.587Z" fill="#D9D9D9"/>
<path d="M4.97464 22.7532C5.12655 22.7532 5.2497 22.6117 5.2497 22.437C5.2497 22.2624 5.12655 22.1208 4.97464 22.1208C4.82273 22.1208 4.69958 22.2624 4.69958 22.437C4.69958 22.6117 4.82273 22.7532 4.97464 22.7532Z" fill="#D9D9D9"/>
<path d="M6.8718 19.587C7.02371 19.587 7.14686 19.4454 7.14686 19.2708C7.14686 19.0961 7.02371 18.9545 6.8718 18.9545C6.71989 18.9545 6.59674 19.0961 6.59674 19.2708C6.59674 19.4454 6.71989 19.587 6.8718 19.587Z" fill="#D9D9D9"/>
<path d="M6.8718 22.7532C7.02371 22.7532 7.14686 22.6117 7.14686 22.437C7.14686 22.2624 7.02371 22.1208 6.8718 22.1208C6.71989 22.1208 6.59674 22.2624 6.59674 22.437C6.59674 22.6117 6.71989 22.7532 6.8718 22.7532Z" fill="#D9D9D9"/>
<path d="M4.97464 38.2678C5.12655 38.2678 5.2497 38.1262 5.2497 37.9516C5.2497 37.7769 5.12655 37.6353 4.97464 37.6353C4.82273 37.6353 4.69958 37.7769 4.69958 37.9516C4.69958 38.1262 4.82273 38.2678 4.97464 38.2678Z" fill="#D9D9D9"/>
<path d="M4.97464 41.4339C5.12655 41.4339 5.2497 41.2923 5.2497 41.1177C5.2497 40.943 5.12655 40.8014 4.97464 40.8014C4.82273 40.8014 4.69958 40.943 4.69958 41.1177C4.69958 41.2923 4.82273 41.4339 4.97464 41.4339Z" fill="#D9D9D9"/>
<path d="M6.8718 38.2678C7.02371 38.2678 7.14686 38.1262 7.14686 37.9516C7.14686 37.7769 7.02371 37.6353 6.8718 37.6353C6.71989 37.6353 6.59674 37.7769 6.59674 37.9516C6.59674 38.1262 6.71989 38.2678 6.8718 38.2678Z" fill="#D9D9D9"/>
<path d="M6.8718 41.4339C7.02371 41.4339 7.14686 41.2923 7.14686 41.1177C7.14686 40.943 7.02371 40.8014 6.8718 40.8014C6.71989 40.8014 6.59674 40.943 6.59674 41.1177C6.59674 41.2923 6.71989 41.4339 6.8718 41.4339Z" fill="#D9D9D9"/>
<path d="M6.00265 8.44716C7.23886 8.44716 8.24099 7.41022 8.24099 6.13108C8.24099 4.85195 7.23886 3.815 6.00265 3.815C4.76645 3.815 3.76431 4.85195 3.76431 6.13108C3.76431 7.41022 4.76645 8.44716 6.00265 8.44716Z" stroke="#D9D9D9" stroke-width="7"/>
<path d="M50.3498 40.5828V5.84157C50.3498 4.1627 49.0345 2.80171 47.412 2.80171H47.1322C45.5097 2.80171 44.1944 4.1627 44.1944 5.84157V40.5828C44.1944 42.2616 45.5097 43.6226 47.1322 43.6226H47.412C49.0345 43.6226 50.3498 42.2616 50.3498 40.5828Z" fill="#84B419"/>
<path d="M52.3029 33.758L61.5209 24.2199C62.6681 23.0328 62.6681 21.1081 61.5209 19.9209L61.323 19.7162C60.1757 18.5291 58.3156 18.5291 57.1683 19.7162L47.9504 29.2543C46.8031 30.4414 46.8031 32.3661 47.9504 33.5533L48.1482 33.758C49.2955 34.9451 51.1557 34.9451 52.3029 33.758Z" fill="#84B419"/>
<path d="M49.6796 36.0398L59.0505 45.4169C60.2169 46.584 62.0767 46.5518 63.2046 45.3449L63.3992 45.1368C64.5271 43.93 64.4959 42.0055 63.3296 40.8384L53.9587 31.4613C52.7924 30.2942 50.9325 30.3265 49.8046 31.5333L49.6101 31.7414C48.4822 32.9483 48.5133 34.8727 49.6796 36.0398Z" fill="#84B419"/>
<path d="M102.391 44.3464V5.84157C102.391 4.1627 101.076 2.80171 99.4534 2.80171L98.3342 2.80171C96.7117 2.80171 95.3964 4.1627 95.3964 5.84157V44.3464C95.3964 46.0252 96.7117 47.3862 98.3342 47.3862H99.4534C101.076 47.3862 102.391 46.0252 102.391 44.3464Z" fill="#38B2E8"/>
<path d="M90.5 26.252L106.728 26.252C108.35 26.252 109.666 24.891 109.666 23.2122V22.0541C109.666 20.3752 108.35 19.0143 106.728 19.0143L90.5 19.0143C88.8775 19.0143 87.5622 20.3752 87.5622 22.0541V23.2122C87.5622 24.891 88.8775 26.252 90.5 26.252Z" fill="#38B2E8"/>
<path d="M65.8783 15.5401L85.7435 15.5401C87.057 15.5401 88.1218 14.4384 88.1218 13.0793C88.1218 11.7202 87.057 10.6185 85.7435 10.6185L65.8783 10.6185C64.5648 10.6185 63.5 11.7202 63.5 13.0793C63.5 14.4384 64.5648 15.5401 65.8783 15.5401Z" fill="#E83C0E"/>
</svg>
