<svg width="160" height="44" viewBox="0 0 160 44" fill="none" xmlns="http://www.w3.org/2000/svg">
<path d="M75.828 13.574L75.828 13.5739C76.346 11.8932 77.3858 10.8422 78.6374 10.5455C78.6823 10.5358 78.7866 10.5258 78.925 10.5274C79.0606 10.5289 79.1858 10.5411 79.2637 10.5574C79.9608 10.7075 80.5862 11.2165 80.9997 12.0722L75.828 13.574ZM75.828 13.574C75.5856 14.3598 75.4827 15.3348 75.5591 16.0176L75.5592 16.0183M75.828 13.574L75.5592 16.0183M75.5592 16.0183C75.7127 17.4057 76.3563 18.4049 77.2154 18.8369L77.2156 18.837M75.5592 16.0183L77.2156 18.837M77.2156 18.837C77.7064 19.0841 78.1549 19.1119 78.5658 18.9664L77.2156 18.837ZM79.6665 18.3183L79.6657 18.319C79.3654 18.5749 78.8928 18.8506 78.5658 18.9664L79.6665 18.3183ZM79.6665 18.3183C80.4761 17.6312 81.0749 16.5508 81.3008 15.305C81.3781 14.8766 81.3961 14.6739 81.3942 14.1892H81.3942M79.6665 18.3183L81.3942 14.1892M81.3942 14.1892V14.1872M81.3942 14.1892V14.1872M81.3942 14.1872C81.3942 13.2543 81.2634 12.6188 80.9998 12.0723L81.3942 14.1872Z" fill="#525252" stroke="#525252"/>
<path d="M67.5627 12.0754L67.5625 12.0759C67.3498 12.503 67.2433 12.9158 67.1939 13.6064L67.1937 13.6084C67.1719 13.8974 67.1831 14.383 67.2163 14.6787C67.4122 16.4047 68.2121 17.8099 69.3623 18.5803L69.3629 18.5807C69.5864 18.7309 69.9759 18.9235 70.2236 19.0061C70.324 19.0396 70.3593 19.0486 70.3882 19.0537C70.4197 19.0592 70.4599 19.0629 70.5753 19.0681C70.8249 19.078 70.9829 19.056 71.1884 18.9901L71.1886 18.99C71.522 18.8833 71.7902 18.7195 72.0521 18.4576C72.5748 17.9349 72.9303 17.1125 73.0146 16.0877C73.047 15.6789 73.0103 15.0423 72.918 14.5465L72.9177 14.5453C72.5431 12.5058 71.3948 11.1018 69.9847 10.695C69.7207 10.6202 69.4605 10.6056 69.2363 10.6441C68.6182 10.7523 67.9673 11.2608 67.5627 12.0754Z" fill="#525252" stroke="#525252"/>
<path d="M81.1558 23.7961L81.1557 23.7957C81.0806 23.5022 81.0598 23.3357 81.0598 22.9483C81.0598 22.6258 81.0664 22.5381 81.1086 22.2669C81.2332 21.4734 81.3889 20.9856 81.7005 20.3753C82.3784 19.0513 83.4374 18.238 84.6088 18.0452C84.8696 18.003 85.175 18.0411 85.4607 18.1632C86.1863 18.4755 86.7871 19.3846 86.8541 20.5094C86.8659 20.7147 86.8363 21.2791 86.7941 21.5543L86.7938 21.5562C86.6257 22.6826 86.1098 23.7489 85.3737 24.5109L81.1558 23.7961ZM81.1558 23.7961C81.3621 24.6051 81.8356 25.2077 82.3552 25.4591L82.3552 25.4591C82.6543 25.6038 82.9047 25.6498 83.1898 25.6241L83.1912 25.624C83.9856 25.5548 84.707 25.1996 85.3737 24.511L81.1558 23.7961Z" fill="#525252" stroke="#525252"/>
<path d="M62.1115 19.8222L62.1112 19.8231C62.0291 20.0659 61.9543 20.4378 61.9225 20.7836L61.9225 20.7838C61.8094 22.0082 62.2438 23.4185 63.0685 24.4514C63.6802 25.216 64.4592 25.734 65.3202 25.9659C65.9557 26.1362 66.5079 25.9877 67.0107 25.4848C67.443 25.0525 67.6978 24.3877 67.6978 23.4027C67.6978 23.0158 67.68 22.82 67.6132 22.4675L67.613 22.4664C67.3871 21.2589 66.6983 20.0996 65.7647 19.3464L65.7646 19.3464C65.3242 18.991 64.7529 18.6866 64.4477 18.6111L64.4466 18.6108C64.1962 18.5482 63.8662 18.535 63.6183 18.5763C62.9084 18.6955 62.3234 19.1912 62.1115 19.8222Z" fill="#525252" stroke="#525252"/>
<path d="M66.8937 33.01L66.8937 33.01C66.752 32.6173 66.7345 32.1632 66.8426 31.7713L66.3606 31.6384L66.8425 31.7717C66.8707 31.6695 66.9156 31.4925 66.9422 31.3704C67.3224 29.6475 68.2644 27.7512 69.6426 25.9834C70.2425 25.2145 71.1879 24.4908 72.1694 24.0568C72.8121 23.7743 73.4606 23.5996 74.1141 23.5263L66.8937 33.01ZM66.8937 33.01C67.1281 33.6594 67.6317 34.1536 68.2412 34.3585C68.5752 34.4703 69.1535 34.4849 69.8699 34.3351L69.8699 34.335M66.8937 33.01L69.8699 34.335M69.8699 34.335L69.8715 34.3347M69.8699 34.335L69.8715 34.3347M69.8715 34.3347C70.324 34.2416 70.6624 34.1358 71.7066 33.7493C73.1833 33.2001 73.6328 33.081 74.6731 32.9841L74.6734 32.984M69.8715 34.3347L74.6734 32.984M74.6734 32.984C75.1274 32.942 75.2363 32.9379 75.5748 32.9629M74.6734 32.984L75.5748 32.9629M79.9945 34.3759L79.992 34.3752C79.9501 34.3635 79.797 34.3079 79.4938 34.1886C79.2038 34.0744 78.8016 33.9121 78.283 33.7004L79.9945 34.3759ZM79.9945 34.3759C81.3032 34.7467 82.447 34.2566 82.809 33.4555C82.9643 33.1078 83.0054 32.4427 82.8382 31.757C82.6753 31.093 82.1718 29.9611 81.6873 29.1994L81.6871 29.1991M79.9945 34.3759L81.6871 29.1991M81.6871 29.1991C80.2682 26.9649 79.2828 25.7672 78.1654 24.8646L81.6871 29.1991ZM75.2372 23.5262L75.238 23.5263C76.2685 23.6413 77.1123 24.0155 78.1653 24.8646L75.2372 23.5262ZM75.2372 23.5262C74.9526 23.494 74.4064 23.4939 74.1141 23.5263L75.2372 23.5262ZM75.5748 32.9629C76.423 33.0231 77.0895 33.2131 78.2829 33.7004L75.5748 32.9629Z" fill="#525252" stroke="#525252"/>
<path d="M24.1321 17H22.4957C22.3252 16.1136 22.0056 15.2571 21.5369 14.4304C21.0681 13.5952 20.463 12.8452 19.7215 12.1804C18.9886 11.5071 18.1363 10.9744 17.1647 10.5824C16.1931 10.1903 15.1193 9.99432 13.9431 9.99432C12.2215 9.99432 10.6363 10.4545 9.18746 11.375C7.74712 12.2869 6.59229 13.6293 5.72297 15.402C4.86217 17.1747 4.43177 19.3437 4.43177 21.9091C4.43177 24.4915 4.86217 26.669 5.72297 28.4418C6.59229 30.2145 7.74712 31.5568 9.18746 32.4688C10.6363 33.3722 12.2215 33.8239 13.9431 33.8239C15.1193 33.8239 16.1931 33.6321 17.1647 33.2486C18.1363 32.8565 18.9886 32.3281 19.7215 31.6634C20.463 30.9901 21.0681 30.2358 21.5369 29.4006C22.0056 28.5653 22.3252 27.7045 22.4957 26.8182H24.1321C23.9446 27.875 23.5823 28.9105 23.0454 29.9247C22.517 30.9389 21.8181 31.8594 20.9488 32.6861C20.088 33.5043 19.0696 34.1562 17.8934 34.642C16.7258 35.1193 15.409 35.358 13.9431 35.358C11.7613 35.358 9.83944 34.804 8.17751 33.696C6.51558 32.5795 5.2116 31.0114 4.26558 28.9915C3.32808 26.9716 2.85933 24.6108 2.85933 21.9091C2.85933 19.2074 3.32808 16.8466 4.26558 14.8267C5.2116 12.8068 6.51558 11.2429 8.17751 10.1349C9.83944 9.01846 11.7613 8.46023 13.9431 8.46023C15.409 8.46023 16.7258 8.70312 17.8934 9.18892C19.0696 9.66619 20.088 10.3139 20.9488 11.1321C21.8181 11.9418 22.517 12.8537 23.0454 13.8679C23.5823 14.8821 23.9446 15.9261 24.1321 17ZM34.9282 35.4219C33.7947 35.4219 32.7549 35.196 31.8089 34.7443C30.8714 34.2926 30.1171 33.6321 29.5461 32.7628C28.9836 31.8935 28.7024 30.8366 28.7024 29.5923C28.7024 28.7741 28.8473 28.054 29.137 27.4318C29.4268 26.8097 29.8742 26.2727 30.4794 25.821C31.0845 25.3693 31.86 24.9986 32.8061 24.7088C33.7521 24.4105 34.8813 24.1804 36.1938 24.0185C37.191 23.8991 38.0816 23.7841 38.8657 23.6733C39.6498 23.554 40.2635 23.3707 40.7066 23.1236C41.1583 22.8764 41.3842 22.5014 41.3842 21.9986V21.1804C41.3842 19.7486 40.9325 18.6108 40.0291 17.767C39.1257 16.9233 37.8813 16.5014 36.2961 16.5014C34.8899 16.5014 33.7052 16.8125 32.7421 17.4347C31.7876 18.0483 31.1186 18.8409 30.735 19.8125L29.2649 19.2628C29.6399 18.3253 30.1811 17.5455 30.8885 16.9233C31.6044 16.3011 32.4225 15.8366 33.343 15.5298C34.272 15.223 35.2436 15.0696 36.2578 15.0696C37.1356 15.0696 37.9708 15.1932 38.7635 15.4403C39.5646 15.6875 40.2762 16.0625 40.8984 16.5653C41.5291 17.0682 42.0277 17.7116 42.3941 18.4957C42.7606 19.2713 42.9438 20.2003 42.9438 21.2827V35H41.3842V31.4588H41.2691C40.9282 32.1918 40.4595 32.8608 39.8629 33.4659C39.2748 34.0625 38.5632 34.5398 37.7279 34.8977C36.9012 35.2472 35.968 35.4219 34.9282 35.4219ZM35.0816 33.9773C36.3089 33.9773 37.3956 33.679 38.3416 33.0824C39.2961 32.4773 40.0419 31.6506 40.5788 30.6023C41.1157 29.554 41.3842 28.3651 41.3842 27.0355V24.1463C41.1882 24.3168 40.9027 24.4702 40.5277 24.6065C40.1612 24.7344 39.7436 24.8494 39.2748 24.9517C38.8146 25.0455 38.3288 25.1307 37.8174 25.2074C37.3146 25.2756 36.8245 25.3395 36.3473 25.3991C34.9154 25.5696 33.7478 25.8338 32.8444 26.1918C31.9495 26.5412 31.2933 27.0014 30.8757 27.5724C30.4666 28.1435 30.262 28.8338 30.262 29.6435C30.262 30.9815 30.7223 32.0384 31.6427 32.8139C32.5632 33.5895 33.7095 33.9773 35.0816 33.9773ZM56.4247 15.3636V16.7571H47.8465V15.3636H56.4247ZM50.7485 10.6591H52.2954V30.3594C52.2954 31.1605 52.4488 31.8168 52.7556 32.3281C53.071 32.831 53.4801 33.206 53.9829 33.4531C54.4943 33.6918 55.0397 33.8111 55.6193 33.8111C55.9005 33.8111 56.1434 33.7898 56.348 33.7472C56.561 33.7045 56.7613 33.6491 56.9488 33.581L57.3323 35C57.0937 35.0852 56.8295 35.1577 56.5397 35.2173C56.25 35.2855 55.909 35.3196 55.517 35.3196C54.6988 35.3196 53.9233 35.1364 53.1903 34.7699C52.4659 34.4034 51.8778 33.8707 51.4261 33.1719C50.9744 32.473 50.7485 31.6293 50.7485 30.6406V10.6591Z" fill="#626262"/>
<path d="M94.1889 35V8.81818H102.256C103.918 8.81818 105.341 9.15909 106.526 9.84091C107.719 10.5227 108.635 11.456 109.274 12.6406C109.913 13.8253 110.233 15.1761 110.233 16.6932C110.233 18.1932 109.913 19.5355 109.274 20.7202C108.635 21.9048 107.719 22.8423 106.526 23.5327C105.341 24.2145 103.922 24.5554 102.268 24.5554H95.3139V23.0724H102.23C103.577 23.0724 104.727 22.7997 105.682 22.2543C106.636 21.7003 107.369 20.946 107.881 19.9915C108.392 19.0284 108.648 17.929 108.648 16.6932C108.648 15.4489 108.392 14.3452 107.881 13.3821C107.369 12.419 106.632 11.6648 105.669 11.1193C104.714 10.5739 103.564 10.3011 102.217 10.3011H95.7869V35H94.1889ZM115.899 35V15.3636H117.446V35H115.899ZM116.679 11.8864C116.338 11.8864 116.04 11.767 115.784 11.5284C115.537 11.2898 115.414 11 115.414 10.6591C115.414 10.3182 115.537 10.0284 115.784 9.78977C116.032 9.55114 116.33 9.43182 116.679 9.43182C117.02 9.43182 117.314 9.55114 117.561 9.78977C117.817 10.0284 117.945 10.3182 117.945 10.6591C117.945 11 117.821 11.2898 117.574 11.5284C117.327 11.767 117.029 11.8864 116.679 11.8864ZM131.343 35.4091C129.672 35.4091 128.202 34.9702 126.932 34.0923C125.662 33.206 124.669 31.9957 123.953 30.4616C123.246 28.9276 122.892 27.1889 122.892 25.2457C122.892 23.3026 123.25 21.5639 123.966 20.0298C124.682 18.4957 125.675 17.2855 126.945 16.3991C128.215 15.5128 129.676 15.0696 131.33 15.0696C132.574 15.0696 133.708 15.3253 134.73 15.8366C135.762 16.348 136.614 17.0597 137.287 17.9716C137.969 18.8835 138.404 19.9403 138.591 21.142H137.006C136.75 19.8125 136.111 18.7131 135.088 17.8438C134.074 16.9659 132.826 16.527 131.343 16.527C130.013 16.527 128.828 16.902 127.789 17.652C126.749 18.3935 125.931 19.4205 125.334 20.733C124.738 22.0369 124.439 23.5327 124.439 25.2202C124.439 26.8821 124.729 28.3736 125.309 29.6946C125.888 31.0071 126.698 32.0469 127.738 32.8139C128.777 33.581 129.979 33.9645 131.343 33.9645C132.306 33.9645 133.184 33.7727 133.976 33.3892C134.777 33.0057 135.446 32.4602 135.983 31.7528C136.52 31.0455 136.874 30.2188 137.044 29.2727H138.63C138.442 30.483 138.016 31.5483 137.351 32.4688C136.686 33.3892 135.838 34.1094 134.807 34.6293C133.776 35.1491 132.621 35.4091 131.343 35.4091ZM156.425 19.5952L154.98 19.9787C154.75 19.2628 154.422 18.6449 153.996 18.125C153.57 17.6051 153.033 17.2045 152.385 16.9233C151.746 16.6335 150.979 16.4886 150.084 16.4886C148.644 16.4886 147.463 16.8466 146.543 17.5625C145.631 18.2784 145.175 19.2116 145.175 20.3622C145.175 21.2997 145.486 22.0753 146.108 22.6889C146.73 23.294 147.681 23.7543 148.959 24.0696L151.976 24.8239C153.527 25.2074 154.695 25.8295 155.479 26.6903C156.263 27.5426 156.655 28.6037 156.655 29.8736C156.655 30.956 156.361 31.9148 155.773 32.75C155.185 33.5852 154.371 34.2372 153.331 34.706C152.3 35.1747 151.098 35.4091 149.726 35.4091C147.894 35.4091 146.39 34.983 145.213 34.1307C144.037 33.2699 143.283 32.0384 142.951 30.4361L144.446 30.0526C144.728 31.331 145.311 32.3068 146.198 32.9801C147.093 33.6449 148.265 33.9773 149.713 33.9773C151.316 33.9773 152.607 33.598 153.587 32.8395C154.576 32.081 155.07 31.1094 155.07 29.9247C155.07 29.0213 154.78 28.2585 154.201 27.6364C153.621 27.0142 152.743 26.5582 151.567 26.2685L148.435 25.5014C146.833 25.1094 145.631 24.483 144.83 23.6222C144.029 22.7528 143.628 21.6832 143.628 20.4134C143.628 19.3565 143.905 18.4276 144.459 17.6264C145.013 16.8253 145.776 16.1989 146.747 15.7472C147.719 15.2955 148.831 15.0696 150.084 15.0696C151.746 15.0696 153.101 15.4616 154.149 16.2457C155.198 17.0298 155.956 18.1463 156.425 19.5952Z" fill="#626262"/>
</svg>
