<svg width="155" height="28" viewBox="0 0 155 28" fill="none" xmlns="http://www.w3.org/2000/svg">
<path d="M76.5259 2.0581C75.0557 2.40489 73.9058 3.62374 73.3502 5.42666C73.0906 6.2683 72.9771 7.31273 73.0622 8.07325C73.2285 9.57602 73.9383 10.7543 74.9908 11.2836C75.587 11.5838 76.1771 11.6345 76.7327 11.4378C77.1221 11.2998 77.6473 10.9916 77.99 10.6995C78.9005 9.92687 79.5495 8.73641 79.7928 7.39386C79.876 6.93349 79.8962 6.70027 79.8942 6.18717C79.8942 5.20561 79.7563 4.48971 79.4501 3.85494C78.9837 2.88959 78.2455 2.25685 77.3675 2.06824C77.1261 2.01754 76.7246 2.01348 76.5259 2.0581Z" fill="#525252"/>
<path d="M67.1509 2.1514C66.3378 2.29336 65.5712 2.93422 65.1149 3.85292C64.8655 4.35384 64.7479 4.83449 64.6952 5.57066C64.6708 5.89312 64.683 6.41027 64.7195 6.73475C64.9284 8.57621 65.7882 10.1277 67.084 10.9957C67.3436 11.1701 67.7735 11.383 68.0655 11.4804C68.2724 11.5493 68.3251 11.5574 68.5543 11.5676C68.8584 11.5797 69.0754 11.5513 69.3411 11.4662C69.7527 11.3343 70.0894 11.1275 70.4057 10.8111C71.0323 10.1844 71.4217 9.23938 71.5129 8.12801C71.5494 7.66968 71.5089 6.98826 71.4095 6.45489C71.0121 4.29097 69.769 2.68883 68.1223 2.21427C67.7938 2.12098 67.4572 2.09867 67.1509 2.1514Z" fill="#525252"/>
<path d="M82.5285 9.5517C81.1718 9.77478 79.9916 10.7097 79.2554 12.1476C78.9168 12.8107 78.7464 13.3502 78.6146 14.1898C78.568 14.49 78.5599 14.6035 78.5599 14.9483C78.5599 15.3701 78.5842 15.579 78.6714 15.9197C78.9046 16.8344 79.4542 17.5787 80.1376 17.9092C80.5107 18.0897 80.8514 18.1566 81.2347 18.1222C82.1655 18.041 82.9949 17.6212 83.733 16.8587C84.5462 16.0171 85.1059 14.853 85.2884 13.6301C85.3351 13.3259 85.3675 12.7256 85.3533 12.4802C85.2783 11.2187 84.601 10.1094 83.658 9.7038C83.293 9.54764 82.8915 9.49289 82.5285 9.5517Z" fill="#525252"/>
<path d="M61.5357 10.083C60.6536 10.2311 59.9114 10.8476 59.6376 11.6629C59.5402 11.9508 59.4591 12.3625 59.4247 12.7377C59.2989 14.0985 59.7775 15.6358 60.6779 16.7634C61.3512 17.605 62.2191 18.187 63.1905 18.4487C64.0077 18.6677 64.7418 18.4608 65.3644 17.8382C65.92 17.2825 66.1978 16.4713 66.1978 15.4026C66.1978 14.9868 66.1775 14.7597 66.1045 14.3743C65.8571 13.0521 65.1068 11.7866 64.0787 10.9571C63.6062 10.5758 62.9694 10.225 62.5679 10.1256C62.2515 10.0465 61.852 10.0303 61.5357 10.083Z" fill="#525252"/>
<path d="M72.0584 15.0294C71.3527 15.1085 70.6551 15.2971 69.9677 15.5993C68.9172 16.0637 67.9033 16.8364 67.2483 17.676C65.8348 19.489 64.8533 21.4522 64.4538 23.2632C64.4295 23.3748 64.3869 23.5431 64.3606 23.6384C64.2247 24.1312 64.247 24.691 64.4234 25.1797C64.7073 25.9666 65.3218 26.577 66.0822 26.8326C66.5365 26.9847 67.2158 26.9826 67.9722 26.8244C68.465 26.723 68.8341 26.6054 69.8805 26.2181C71.3365 25.6766 71.7401 25.5731 72.7195 25.4819C73.1576 25.4413 73.2366 25.4393 73.5388 25.4616C74.3114 25.5164 74.9218 25.6847 76.0939 26.1633C77.1322 26.5872 77.7122 26.8163 77.8582 26.8569C79.3183 27.2706 80.7682 26.7616 81.2651 25.6604C81.4821 25.1757 81.5064 24.3867 81.3239 23.6384C81.1454 22.9103 80.6161 21.728 80.1092 20.931C78.6795 18.6799 77.6595 17.4286 76.4792 16.4754C75.37 15.581 74.4392 15.1572 73.2934 15.0294C72.971 14.9929 72.387 14.9929 72.0584 15.0294Z" fill="#525252"/>
<path d="M22.1321 8.99998H20.4957C20.3253 8.11362 20.0057 7.25708 19.5369 6.43038C19.0682 5.59515 18.4631 4.84515 17.7216 4.18038C16.9886 3.50708 16.1364 2.97441 15.1648 2.58236C14.1932 2.19032 13.1193 1.9943 11.9432 1.9943C10.2216 1.9943 8.63636 2.45452 7.1875 3.37498C5.74716 4.28691 4.59233 5.62924 3.72301 7.40197C2.86222 9.17469 2.43182 11.3437 2.43182 13.9091C2.43182 16.4915 2.86222 18.669 3.72301 20.4417C4.59233 22.2145 5.74716 23.5568 7.1875 24.4687C8.63636 25.3721 10.2216 25.8238 11.9432 25.8238C13.1193 25.8238 14.1932 25.6321 15.1648 25.2486C16.1364 24.8565 16.9886 24.3281 17.7216 23.6633C18.4631 22.99 19.0682 22.2358 19.5369 21.4005C20.0057 20.5653 20.3253 19.7045 20.4957 18.8182H22.1321C21.9446 19.875 21.5824 20.9105 21.0455 21.9247C20.517 22.9389 19.8182 23.8594 18.9489 24.6861C18.0881 25.5042 17.0696 26.1562 15.8935 26.642C14.7259 27.1193 13.4091 27.3579 11.9432 27.3579C9.76136 27.3579 7.83949 26.804 6.17756 25.696C4.51563 24.5795 3.21165 23.0113 2.26562 20.9915C1.32812 18.9716 0.859375 16.6108 0.859375 13.9091C0.859375 11.2074 1.32812 8.84657 2.26562 6.82668C3.21165 4.8068 4.51563 3.24288 6.17756 2.13492C7.83949 1.01844 9.76136 0.460205 11.9432 0.460205C13.4091 0.460205 14.7259 0.703103 15.8935 1.1889C17.0696 1.66617 18.0881 2.3139 18.9489 3.13208C19.8182 3.94174 20.517 4.85367 21.0455 5.86788C21.5824 6.88208 21.9446 7.92612 22.1321 8.99998Z" fill="#626262"/>
<path d="M32.9283 27.4219C31.7947 27.4219 30.755 27.196 29.8089 26.7443C28.8714 26.2926 28.1172 25.6321 27.5462 24.7628C26.9837 23.8934 26.7024 22.8366 26.7024 21.5923C26.7024 20.7741 26.8473 20.054 27.1371 19.4318C27.4268 18.8096 27.8743 18.2727 28.4794 17.821C29.0845 17.3693 29.8601 16.9986 30.8061 16.7088C31.7521 16.4105 32.8814 16.1804 34.1939 16.0184C35.1911 15.8991 36.0817 15.7841 36.8658 15.6733C37.6499 15.554 38.2635 15.3707 38.7067 15.1236C39.1584 14.8764 39.3842 14.5014 39.3842 13.9986V13.1804C39.3842 11.7486 38.9325 10.6108 38.0291 9.76702C37.1257 8.92327 35.8814 8.5014 34.2962 8.5014C32.8899 8.5014 31.7053 8.81248 30.7422 9.43464C29.7876 10.0483 29.1186 10.8409 28.7351 11.8125L27.2649 11.2628C27.6399 10.3253 28.1811 9.54543 28.8885 8.92327C29.6044 8.30111 30.4226 7.83663 31.343 7.52981C32.272 7.22299 33.2436 7.06958 34.2578 7.06958C35.1357 7.06958 35.9709 7.19316 36.7635 7.44032C37.5646 7.68748 38.2763 8.06248 38.8984 8.56532C39.5291 9.06816 40.0277 9.71163 40.3942 10.4957C40.7607 11.2713 40.9439 12.2003 40.9439 13.2826V27H39.3842V23.4588H39.2692C38.9283 24.1917 38.4595 24.8608 37.8629 25.4659C37.2749 26.0625 36.5632 26.5398 35.728 26.8977C34.9013 27.2471 33.968 27.4219 32.9283 27.4219ZM33.0817 25.9773C34.3089 25.9773 35.3956 25.679 36.3416 25.0824C37.2962 24.4773 38.0419 23.6505 38.5788 22.6023C39.1158 21.554 39.3842 20.365 39.3842 19.0355V16.1463C39.1882 16.3167 38.9027 16.4701 38.5277 16.6065C38.1612 16.7344 37.7436 16.8494 37.2749 16.9517C36.8146 17.0454 36.3288 17.1307 35.8175 17.2074C35.3146 17.2755 34.8246 17.3395 34.3473 17.3991C32.9155 17.5696 31.7479 17.8338 30.8445 18.1917C29.9496 18.5412 29.2933 19.0014 28.8757 19.5724C28.4666 20.1434 28.2621 20.8338 28.2621 21.6434C28.2621 22.9815 28.7223 24.0383 29.6428 24.8139C30.5632 25.5895 31.7095 25.9773 33.0817 25.9773Z" fill="#626262"/>
<path d="M54.4247 7.36361V8.75708H45.8466V7.36361H54.4247ZM48.7486 2.65907H50.2955V22.3594C50.2955 23.1605 50.4489 23.8167 50.7557 24.3281C51.071 24.8309 51.4801 25.2059 51.983 25.4531C52.4943 25.6917 53.0398 25.8111 53.6193 25.8111C53.9006 25.8111 54.1435 25.7898 54.348 25.7471C54.5611 25.7045 54.7614 25.6491 54.9489 25.5809L55.3324 27C55.0937 27.0852 54.8295 27.1576 54.5398 27.2173C54.25 27.2855 53.9091 27.3196 53.517 27.3196C52.6989 27.3196 51.9233 27.1363 51.1903 26.7699C50.4659 26.4034 49.8778 25.8707 49.4261 25.1719C48.9744 24.473 48.7486 23.6292 48.7486 22.6406V2.65907Z" fill="#626262"/>
<path d="M92.1889 27V0.81816H100.256C101.918 0.81816 103.341 1.15907 104.526 1.84089C105.719 2.52271 106.635 3.45594 107.274 4.6406C107.913 5.82526 108.233 7.17611 108.233 8.69316C108.233 10.1932 107.913 11.5355 107.274 12.7201C106.635 13.9048 105.719 14.8423 104.526 15.5326C103.341 16.2145 101.922 16.5554 100.268 16.5554H93.3139V15.0724H100.23C101.577 15.0724 102.727 14.7997 103.682 14.2542C104.636 13.7003 105.369 12.946 105.881 11.9915C106.392 11.0284 106.648 9.92896 106.648 8.69316C106.648 7.44884 106.392 6.34515 105.881 5.38208C105.369 4.41901 104.632 3.66475 103.669 3.1193C102.714 2.57384 101.564 2.30111 100.217 2.30111H93.7869V27H92.1889Z" fill="#626262"/>
<path d="M113.9 27V7.36361H115.446V27H113.9ZM114.679 3.88634C114.338 3.88634 114.04 3.76702 113.784 3.52839C113.537 3.28975 113.414 2.99998 113.414 2.65907C113.414 2.31816 113.537 2.02839 113.784 1.78975C114.032 1.55111 114.33 1.4318 114.679 1.4318C115.02 1.4318 115.314 1.55111 115.561 1.78975C115.817 2.02839 115.945 2.31816 115.945 2.65907C115.945 2.99998 115.821 3.28975 115.574 3.52839C115.327 3.76702 115.029 3.88634 114.679 3.88634Z" fill="#626262"/>
<path d="M129.343 27.4091C127.672 27.4091 126.202 26.9701 124.932 26.0923C123.662 25.2059 122.669 23.9957 121.953 22.4616C121.246 20.9275 120.892 19.1889 120.892 17.2457C120.892 15.3025 121.25 13.5639 121.966 12.0298C122.682 10.4957 123.675 9.28549 124.945 8.39913C126.215 7.51276 127.676 7.06958 129.33 7.06958C130.574 7.06958 131.708 7.32526 132.73 7.83663C133.762 8.34799 134.614 9.05964 135.287 9.97157C135.969 10.8835 136.404 11.9403 136.591 13.142H135.006C134.75 11.8125 134.111 10.713 133.088 9.84373C132.074 8.96589 130.826 8.52697 129.343 8.52697C128.013 8.52697 126.828 8.90197 125.789 9.65197C124.749 10.3934 123.931 11.4204 123.334 12.7329C122.738 14.0369 122.439 15.5326 122.439 17.2201C122.439 18.8821 122.729 20.3736 123.309 21.6946C123.888 23.0071 124.698 24.0469 125.738 24.8139C126.777 25.5809 127.979 25.9645 129.343 25.9645C130.306 25.9645 131.184 25.7727 131.976 25.3892C132.777 25.0057 133.446 24.4602 133.983 23.7528C134.52 23.0454 134.874 22.2187 135.044 21.2727H136.63C136.442 22.4829 136.016 23.5483 135.351 24.4687C134.686 25.3892 133.838 26.1094 132.807 26.6292C131.776 27.1491 130.621 27.4091 129.343 27.4091Z" fill="#626262"/>
<path d="M154.425 11.5951L152.98 11.9787C152.75 11.2628 152.422 10.6449 151.996 10.125C151.57 9.60509 151.033 9.20452 150.385 8.92327C149.746 8.6335 148.979 8.48862 148.084 8.48862C146.644 8.48862 145.463 8.84657 144.543 9.56248C143.631 10.2784 143.175 11.2116 143.175 12.3622C143.175 13.2997 143.486 14.0753 144.108 14.6889C144.73 15.294 145.681 15.7542 146.959 16.0696L149.976 16.8238C151.527 17.2074 152.695 17.8295 153.479 18.6903C154.263 19.5426 154.655 20.6037 154.655 21.8736C154.655 22.9559 154.361 23.9148 153.773 24.75C153.185 25.5852 152.371 26.2372 151.331 26.7059C150.3 27.1747 149.098 27.4091 147.726 27.4091C145.894 27.4091 144.39 26.9829 143.213 26.1307C142.037 25.2699 141.283 24.0383 140.951 22.4361L142.446 22.0525C142.728 23.3309 143.311 24.3068 144.198 24.9801C145.093 25.6449 146.265 25.9773 147.713 25.9773C149.316 25.9773 150.607 25.598 151.587 24.8395C152.576 24.0809 153.07 23.1094 153.07 21.9247C153.07 21.0213 152.78 20.2585 152.201 19.6363C151.621 19.0142 150.743 18.5582 149.567 18.2684L146.435 17.5014C144.833 17.1094 143.631 16.4829 142.83 15.6221C142.029 14.7528 141.628 13.6832 141.628 12.4133C141.628 11.3565 141.905 10.4275 142.459 9.6264C143.013 8.82526 143.776 8.19884 144.748 7.74714C145.719 7.29543 146.831 7.06958 148.084 7.06958C149.746 7.06958 151.101 7.46163 152.15 8.24572C153.198 9.02981 153.956 10.1463 154.425 11.5951Z" fill="#626262"/>
</svg>
