<svg width="225" height="58" viewBox="0 0 225 58" fill="none" xmlns="http://www.w3.org/2000/svg">
<mask id="path-1-outside-1_18_19" maskUnits="userSpaceOnUse" x="7.40479" y="16.5" width="58" height="34" fill="black">
<rect fill="white" x="7.40479" y="16.5" width="58" height="34"/>
<path d="M41.489 39.5H33.729L33.689 28.38C33.689 26.9133 33.5157 25.9 33.169 25.34C32.849 24.78 32.249 24.5 31.369 24.5C30.7023 24.5 30.1557 24.9133 29.729 25.74C29.329 26.54 29.129 27.5667 29.129 28.82L29.169 29.58L29.129 29.46V39.38L21.609 39.46L21.529 28.38C21.529 27.1533 21.3023 26.2067 20.849 25.54C20.3957 24.8467 19.7557 24.5 18.929 24.5C18.0757 24.5 17.4223 24.86 16.969 25.58C16.5157 26.3 16.289 27.3267 16.289 28.66L16.329 29.5L16.289 29.42L16.609 39.54H9.089V18.46L15.969 18.22L16.009 19.82C16.7023 19.2867 17.5423 18.8733 18.529 18.58C19.5423 18.2867 20.6357 18.14 21.809 18.14C24.2623 18.14 26.1157 18.7667 27.369 20.02C28.0357 19.2733 28.9157 18.74 30.009 18.42C31.1023 18.1 32.529 17.94 34.289 17.94C36.769 17.94 38.569 18.9267 39.689 20.9C40.8357 22.8467 41.4223 26.0067 41.449 30.38L41.489 39.5ZM63.2712 17.7L57.6712 38.62C56.6845 42.0333 55.2312 44.66 53.3112 46.5C51.4179 48.3667 49.2045 49.3 46.6712 49.3C45.6045 49.3 44.4579 49.14 43.2312 48.82C42.0312 48.5 40.8979 48.0733 39.8312 47.54L41.6312 40.06C42.1379 40.4867 42.8979 40.86 43.9112 41.18C44.9245 41.5 45.7645 41.66 46.4312 41.66C47.6312 41.66 48.5512 41.1533 49.1912 40.14L40.2712 18.34L48.1112 18.14L52.1912 29.98L55.2712 18.06L63.2712 17.7Z"/>
</mask>
<path d="M41.489 39.5H33.729L33.689 28.38C33.689 26.9133 33.5157 25.9 33.169 25.34C32.849 24.78 32.249 24.5 31.369 24.5C30.7023 24.5 30.1557 24.9133 29.729 25.74C29.329 26.54 29.129 27.5667 29.129 28.82L29.169 29.58L29.129 29.46V39.38L21.609 39.46L21.529 28.38C21.529 27.1533 21.3023 26.2067 20.849 25.54C20.3957 24.8467 19.7557 24.5 18.929 24.5C18.0757 24.5 17.4223 24.86 16.969 25.58C16.5157 26.3 16.289 27.3267 16.289 28.66L16.329 29.5L16.289 29.42L16.609 39.54H9.089V18.46L15.969 18.22L16.009 19.82C16.7023 19.2867 17.5423 18.8733 18.529 18.58C19.5423 18.2867 20.6357 18.14 21.809 18.14C24.2623 18.14 26.1157 18.7667 27.369 20.02C28.0357 19.2733 28.9157 18.74 30.009 18.42C31.1023 18.1 32.529 17.94 34.289 17.94C36.769 17.94 38.569 18.9267 39.689 20.9C40.8357 22.8467 41.4223 26.0067 41.449 30.38L41.489 39.5ZM63.2712 17.7L57.6712 38.62C56.6845 42.0333 55.2312 44.66 53.3112 46.5C51.4179 48.3667 49.2045 49.3 46.6712 49.3C45.6045 49.3 44.4579 49.14 43.2312 48.82C42.0312 48.5 40.8979 48.0733 39.8312 47.54L41.6312 40.06C42.1379 40.4867 42.8979 40.86 43.9112 41.18C44.9245 41.5 45.7645 41.66 46.4312 41.66C47.6312 41.66 48.5512 41.1533 49.1912 40.14L40.2712 18.34L48.1112 18.14L52.1912 29.98L55.2712 18.06L63.2712 17.7Z" fill="#F8F8F8"/>
<path d="M41.489 39.5V40.5H42.4934L42.489 39.4956L41.489 39.5ZM33.729 39.5L32.729 39.5036L32.7326 40.5H33.729V39.5ZM33.689 28.38H32.689L32.689 28.3836L33.689 28.38ZM33.169 25.34L32.3008 25.8361L32.3095 25.8514L32.3187 25.8664L33.169 25.34ZM29.729 25.74L28.8403 25.2813L28.8346 25.2928L29.729 25.74ZM29.129 28.82H28.129V28.8463L28.1304 28.8726L29.129 28.82ZM29.169 29.58L28.2203 29.8962L30.1676 29.5274L29.169 29.58ZM29.129 29.46L30.0777 29.1438L28.129 29.46H29.129ZM29.129 39.38L29.1396 40.3799L30.129 40.3694V39.38H29.129ZM21.609 39.46L20.609 39.4672L20.6163 40.4706L21.6196 40.4599L21.609 39.46ZM21.529 28.38H20.529L20.529 28.3872L21.529 28.38ZM20.849 25.54L20.012 26.0872L20.017 26.0948L20.0221 26.1023L20.849 25.54ZM16.969 25.58L17.8152 26.1128L16.969 25.58ZM16.289 28.66H15.289V28.6838L15.2901 28.7076L16.289 28.66ZM16.329 29.5L15.4346 29.9472L17.3279 29.4524L16.329 29.5ZM16.289 29.42L17.1834 28.9728L15.2895 29.4516L16.289 29.42ZM16.609 39.54V40.54H17.6411L17.6085 39.5084L16.609 39.54ZM9.089 39.54H8.089V40.54H9.089V39.54ZM9.089 18.46L9.05414 17.4606L8.089 17.4943V18.46H9.089ZM15.969 18.22L16.9687 18.195L16.9435 17.1854L15.9341 17.2206L15.969 18.22ZM16.009 19.82L15.0093 19.845L15.0585 21.8128L16.6187 20.6126L16.009 19.82ZM18.529 18.58L18.2509 17.6194L18.244 17.6215L18.529 18.58ZM27.369 20.02L26.6619 20.7271L27.4102 21.4754L28.1149 20.686L27.369 20.02ZM30.009 18.42L30.2899 19.3797L30.2899 19.3797L30.009 18.42ZM39.689 20.9L38.8193 21.3936L38.8233 21.4006L38.8274 21.4075L39.689 20.9ZM41.449 30.38L42.449 30.3756L42.449 30.3739L41.449 30.38ZM41.489 38.5H33.729V40.5H41.489V38.5ZM34.729 39.4964L34.689 28.3764L32.689 28.3836L32.729 39.5036L34.729 39.4964ZM34.689 28.38C34.689 26.9047 34.5274 25.6345 34.0193 24.8136L32.3187 25.8664C32.5039 26.1655 32.689 26.922 32.689 28.38H34.689ZM34.0372 24.8439C33.4763 23.8622 32.46 23.5 31.369 23.5V25.5C32.038 25.5 32.2217 25.6978 32.3008 25.8361L34.0372 24.8439ZM31.369 23.5C30.1848 23.5 29.3611 24.2725 28.8404 25.2814L30.6176 26.1986C30.9502 25.5542 31.2199 25.5 31.369 25.5V23.5ZM28.8346 25.2928C28.343 26.2759 28.129 27.4699 28.129 28.82H30.129C30.129 27.6634 30.315 26.8041 30.6234 26.1872L28.8346 25.2928ZM28.1304 28.8726L28.1704 29.6326L30.1676 29.5274L30.1276 28.7674L28.1304 28.8726ZM30.1177 29.2638L30.0777 29.1438L28.1803 29.7762L28.2203 29.8962L30.1177 29.2638ZM28.129 29.46V39.38H30.129V29.46H28.129ZM29.1184 38.3801L21.5984 38.4601L21.6196 40.4599L29.1396 40.3799L29.1184 38.3801ZM22.609 39.4528L22.529 28.3728L20.529 28.3872L20.609 39.4672L22.609 39.4528ZM22.529 28.38C22.529 27.0506 22.2867 25.8759 21.6759 24.9777L20.0221 26.1023C20.3179 26.5374 20.529 27.2561 20.529 28.38H22.529ZM21.686 24.9928C21.0484 24.0176 20.094 23.5 18.929 23.5V25.5C19.4173 25.5 19.7429 25.6757 20.012 26.0872L21.686 24.9928ZM18.929 23.5C17.7333 23.5 16.7598 24.0354 16.1228 25.0472L17.8152 26.1128C18.0848 25.6846 18.418 25.5 18.929 25.5V23.5ZM16.1228 25.0472C15.5271 25.9932 15.289 27.2362 15.289 28.66H17.289C17.289 27.4172 17.5042 26.6068 17.8152 26.1128L16.1228 25.0472ZM15.2901 28.7076L15.3301 29.5476L17.3279 29.4524L17.2879 28.6124L15.2901 28.7076ZM17.2234 29.0528L17.1834 28.9728L15.3946 29.8672L15.4346 29.9472L17.2234 29.0528ZM15.2895 29.4516L15.6095 39.5716L17.6085 39.5084L17.2885 29.3884L15.2895 29.4516ZM16.609 38.54H9.089V40.54H16.609V38.54ZM10.089 39.54V18.46H8.089V39.54H10.089ZM9.12387 19.4594L16.0039 19.2194L15.9341 17.2206L9.05414 17.4606L9.12387 19.4594ZM14.9693 18.245L15.0093 19.845L17.0087 19.795L16.9687 18.195L14.9693 18.245ZM16.6187 20.6126C17.1994 20.166 17.9244 19.803 18.814 19.5385L18.244 17.6215C17.1602 17.9437 16.2053 18.4074 15.3993 19.0274L16.6187 20.6126ZM18.8071 19.5406C19.7205 19.2761 20.7193 19.14 21.809 19.14V17.14C20.552 17.14 19.3641 17.2972 18.2509 17.6194L18.8071 19.5406ZM21.809 19.14C24.101 19.14 25.6586 19.7238 26.6619 20.7271L28.0761 19.3129C26.5728 17.8095 24.4237 17.14 21.809 17.14V19.14ZM28.1149 20.686C28.6406 20.0973 29.3506 19.6546 30.2899 19.3797L29.7281 17.4603C28.4807 17.8253 27.4308 18.4494 26.6231 19.354L28.1149 20.686ZM30.2899 19.3797C31.2566 19.0968 32.5783 18.94 34.289 18.94V16.94C32.4797 16.94 30.9481 17.1032 29.7281 17.4603L30.2899 19.3797ZM34.289 18.94C36.4499 18.94 37.8962 19.7672 38.8193 21.3936L40.5587 20.4064C39.2418 18.0861 37.0881 16.94 34.289 16.94V18.94ZM38.8274 21.4075C39.8341 23.1166 40.4226 26.0523 40.449 30.3861L42.449 30.3739C42.4221 25.9611 41.8373 22.5767 40.5506 20.3925L38.8274 21.4075ZM40.449 30.3844L40.489 39.5044L42.489 39.4956L42.449 30.3756L40.449 30.3844ZM63.2712 17.7L64.2372 17.9586L64.5902 16.6396L63.2262 16.701L63.2712 17.7ZM57.6712 38.62L58.6319 38.8977L58.6346 38.8882L58.6372 38.8786L57.6712 38.62ZM53.3112 46.5L52.6193 45.778L52.6142 45.7829L52.6091 45.7879L53.3112 46.5ZM43.2312 48.82L42.9735 49.7863L42.9788 49.7876L43.2312 48.82ZM39.8312 47.54L38.8589 47.306L38.673 48.0789L39.384 48.4344L39.8312 47.54ZM41.6312 40.06L42.2753 39.2951L41.0375 38.2527L40.6589 39.826L41.6312 40.06ZM43.9112 41.18L43.6101 42.1336L43.9112 41.18ZM49.1912 40.14L50.0367 40.674L50.3119 40.2383L50.1167 39.7613L49.1912 40.14ZM40.2712 18.34L40.2457 17.3403L38.7968 17.3773L39.3457 18.7187L40.2712 18.34ZM48.1112 18.14L49.0566 17.8142L48.818 17.1216L48.0857 17.1403L48.1112 18.14ZM52.1912 29.98L51.2458 30.3058L52.3282 33.447L53.1594 30.2302L52.1912 29.98ZM55.2712 18.06L55.2262 17.061L54.4879 17.0942L54.303 17.8098L55.2712 18.06ZM62.3052 17.4414L56.7052 38.3614L58.6372 38.8786L64.2372 17.9586L62.3052 17.4414ZM56.7105 38.3423C55.7569 41.6414 54.3764 44.0941 52.6193 45.778L54.0031 47.222C56.086 45.2259 57.6122 42.4253 58.6319 38.8977L56.7105 38.3423ZM52.6091 45.7879C50.8926 47.4802 48.9277 48.3 46.6712 48.3V50.3C49.4814 50.3 51.9431 49.2531 54.0133 47.2121L52.6091 45.7879ZM46.6712 48.3C45.7039 48.3 44.6429 48.1548 43.4836 47.8524L42.9788 49.7876C44.2729 50.1252 45.5051 50.3 46.6712 50.3V48.3ZM43.4889 47.8538C42.3516 47.5505 41.282 47.1474 40.2784 46.6456L39.384 48.4344C40.5137 48.9993 41.7108 49.4495 42.9735 49.7862L43.4889 47.8538ZM40.8034 47.774L42.6034 40.294L40.6589 39.826L38.8589 47.306L40.8034 47.774ZM40.9871 40.8249C41.637 41.3723 42.538 41.795 43.6101 42.1336L44.2123 40.2264C43.2577 39.925 42.6387 39.6011 42.2753 39.2951L40.9871 40.8249ZM43.6101 42.1336C44.6702 42.4684 45.6202 42.66 46.4312 42.66V40.66C45.9088 40.66 45.1788 40.5316 44.2123 40.2264L43.6101 42.1336ZM46.4312 42.66C47.9738 42.66 49.2132 41.9779 50.0367 40.674L48.3457 39.606C47.8892 40.3288 47.2886 40.66 46.4312 40.66V42.66ZM50.1167 39.7613L41.1967 17.9613L39.3457 18.7187L48.2657 40.5187L50.1167 39.7613ZM40.2967 19.3397L48.1367 19.1397L48.0857 17.1403L40.2457 17.3403L40.2967 19.3397ZM47.1658 18.4658L51.2458 30.3058L53.1366 29.6542L49.0566 17.8142L47.1658 18.4658ZM53.1594 30.2302L56.2394 18.3102L54.303 17.8098L51.223 29.7298L53.1594 30.2302ZM55.3161 19.059L63.3161 18.699L63.2262 16.701L55.2262 17.061L55.3161 19.059Z" fill="#9E9E9E" mask="url(#path-1-outside-1_18_19)"/>
<path d="M78.3248 14.06C77.6581 14.2733 77.1381 14.7133 76.7648 15.38C76.4181 16.02 76.2048 16.9267 76.1248 18.1L82.2848 18.18L81.8448 25.38L76.4048 25.3L77.0048 39.42H68.8048L68.6448 25.18L64.5248 25.14L63.7648 17.94L68.5648 18.02L68.5248 15.26C68.4181 12.5667 69.1648 10.5533 70.7648 9.22C72.3915 7.88667 74.5515 7.22 77.2448 7.22C78.6315 7.22 79.9115 7.42 81.0848 7.82C82.2848 8.22 83.2981 8.80667 84.1248 9.58L83.8448 15.26C83.7648 15.2067 83.3381 14.9667 82.5648 14.54C81.7915 14.0867 80.8448 13.86 79.7248 13.86C79.1915 13.86 78.7248 13.9267 78.3248 14.06ZM89.5013 16.66C88.728 16.66 87.968 16.46 87.2213 16.06C86.5013 15.6333 85.9013 15.06 85.4213 14.34C84.968 13.62 84.7413 12.8467 84.7413 12.02C84.7413 10.74 85.2213 9.67333 86.1813 8.82C87.168 7.96667 88.3413 7.54 89.7013 7.54C90.9813 7.54 92.008 7.92667 92.7813 8.7C93.5813 9.47333 93.9813 10.5 93.9813 11.78C93.9813 13.1933 93.5547 14.3667 92.7013 15.3C91.848 16.2067 90.7813 16.66 89.5013 16.66ZM85.1413 18.18H93.5013V39.38H85.7813L85.1413 18.18ZM109.735 17.82C111.708 17.82 113.268 18.4867 114.415 19.82C115.561 21.1267 116.108 22.98 116.055 25.38L115.815 39.5H108.495L108.535 30.1C108.535 28.1533 108.268 26.7667 107.735 25.94C107.228 25.1133 106.468 24.7 105.455 24.7C104.628 24.7 103.908 24.94 103.295 25.42C102.708 25.9 102.348 26.7133 102.215 27.86L102.255 39.5H95.0148V18.18L102.175 18.06V20.1C103.188 19.4333 104.375 18.8867 105.735 18.46C107.095 18.0333 108.428 17.82 109.735 17.82ZM132.259 39.5L132.219 37.62C131.499 38.2333 130.606 38.7267 129.539 39.1C128.472 39.4733 127.379 39.66 126.259 39.66C124.499 39.66 122.872 39.18 121.379 38.22C119.886 37.2333 118.699 35.9133 117.819 34.26C116.939 32.6067 116.499 30.7933 116.499 28.82C116.499 26.82 116.952 24.9933 117.859 23.34C118.766 21.6867 120.006 20.3933 121.579 19.46C123.179 18.5 124.939 18.02 126.859 18.02C127.899 18.02 128.872 18.1933 129.779 18.54C130.712 18.8867 131.459 19.3667 132.019 19.98V18.26H138.659L139.579 39.5H132.259ZM127.619 33.06C128.312 33.06 128.979 32.8467 129.619 32.42C130.259 31.9933 130.766 31.4333 131.139 30.74C131.512 30.02 131.699 29.26 131.699 28.46C131.699 27.3667 131.339 26.46 130.619 25.74C129.926 24.9933 129.046 24.62 127.979 24.62C126.806 24.62 125.779 25.0333 124.899 25.86C124.019 26.6867 123.579 27.6733 123.579 28.82C123.579 29.5133 123.766 30.1933 124.139 30.86C124.539 31.5267 125.046 32.06 125.659 32.46C126.299 32.86 126.952 33.06 127.619 33.06ZM155.399 17.82C157.372 17.82 158.932 18.4867 160.079 19.82C161.226 21.1267 161.772 22.98 161.719 25.38L161.479 39.5H154.159L154.199 30.1C154.199 28.1533 153.932 26.7667 153.399 25.94C152.892 25.1133 152.132 24.7 151.119 24.7C150.292 24.7 149.572 24.94 148.959 25.42C148.372 25.9 148.012 26.7133 147.879 27.86L147.919 39.5H140.679V18.18L147.839 18.06V20.1C148.852 19.4333 150.039 18.8867 151.399 18.46C152.759 18.0333 154.092 17.82 155.399 17.82ZM173.083 39.78C171.137 39.78 169.323 39.2733 167.643 38.26C165.963 37.22 164.63 35.8467 163.643 34.14C162.657 32.4067 162.163 30.5533 162.163 28.58C162.163 26.6067 162.63 24.8067 163.563 23.18C164.523 21.5267 165.803 20.22 167.403 19.26C169.03 18.3 170.817 17.82 172.763 17.82C174.497 17.82 176.19 18.22 177.843 19.02C179.523 19.82 180.883 20.9 181.923 22.26C182.963 23.62 183.483 25.0867 183.483 26.66L176.763 27.26C176.523 26.4867 176.083 25.8733 175.443 25.42C174.83 24.94 174.137 24.7 173.363 24.7C172.297 24.7 171.337 25.1 170.483 25.9C169.657 26.6733 169.243 27.5667 169.243 28.58C169.243 29.2467 169.443 29.9 169.843 30.54C170.243 31.18 170.763 31.7 171.403 32.1C172.07 32.5 172.75 32.7 173.443 32.7C174.137 32.7 174.79 32.5 175.403 32.1C176.043 31.7 176.497 31.1933 176.763 30.58L183.403 31.22C183.403 32.6867 182.897 34.0867 181.883 35.42C180.897 36.7267 179.603 37.78 178.003 38.58C176.403 39.38 174.763 39.78 173.083 39.78ZM194.564 18.02C197.897 18.02 200.484 18.9933 202.324 20.94C204.164 22.8867 205.084 25.54 205.084 28.9C205.084 29.46 205.071 29.8867 205.044 30.18L190.884 30.34C191.204 31.22 191.644 31.9533 192.204 32.54C192.791 33.1 193.471 33.4067 194.244 33.46C196.377 33.62 197.924 32.9933 198.884 31.58L204.604 33.22C204.257 34.4733 203.591 35.6067 202.604 36.62C201.617 37.6067 200.431 38.38 199.044 38.94C197.684 39.5 196.271 39.78 194.804 39.78C194.457 39.78 194.191 39.7667 194.004 39.74C192.164 39.6067 190.457 39.0067 188.884 37.94C187.337 36.8733 186.097 35.4733 185.164 33.74C184.257 32.0067 183.804 30.1133 183.804 28.06C183.804 27.66 183.817 27.3533 183.844 27.14C183.951 25.38 184.484 23.8067 185.444 22.42C186.431 21.0333 187.711 19.9533 189.284 19.18C190.884 18.4067 192.644 18.02 194.564 18.02ZM194.964 22.98C192.991 22.82 191.644 23.6467 190.924 25.46L197.684 25.5C197.577 24.7267 197.257 24.1267 196.724 23.7C196.217 23.2733 195.631 23.0333 194.964 22.98ZM220.271 25.54C219.071 24.8733 218.004 24.3933 217.071 24.1C216.137 23.78 215.244 23.62 214.391 23.62C213.591 23.62 212.924 23.74 212.391 23.98C211.884 24.22 211.631 24.5267 211.631 24.9C211.631 25.5667 212.564 25.9 214.431 25.9C217.151 25.9 219.271 26.4333 220.791 27.5C222.311 28.5667 223.071 30.0467 223.071 31.94C223.071 33.38 222.617 34.7133 221.711 35.94C220.831 37.14 219.631 38.1 218.111 38.82C216.617 39.54 214.977 39.9 213.191 39.9C211.431 39.9 209.751 39.58 208.151 38.94C206.551 38.2733 205.284 37.3933 204.351 36.3L208.391 31.74C209.031 32.3 209.764 32.74 210.591 33.06C211.417 33.3533 212.257 33.5 213.111 33.5C213.937 33.5 214.631 33.3667 215.191 33.1C215.777 32.8067 216.071 32.46 216.071 32.06C216.071 31.74 215.884 31.5133 215.511 31.38C215.137 31.2467 214.511 31.18 213.631 31.18C213.471 31.2067 213.231 31.22 212.911 31.22C211.577 31.22 210.311 30.9267 209.111 30.34C207.937 29.7267 206.991 28.9133 206.271 27.9C205.551 26.8867 205.191 25.7933 205.191 24.62C205.191 23.3933 205.604 22.2467 206.431 21.18C207.257 20.1133 208.364 19.26 209.751 18.62C211.137 17.9533 212.604 17.62 214.151 17.62C215.697 17.62 217.244 17.9267 218.791 18.54C220.364 19.1533 221.791 20.0067 223.071 21.1L220.271 25.54Z" fill="#585858"/>
</svg>
