<svg width="12" height="48" viewBox="0 0 12 48" fill="none" xmlns="http://www.w3.org/2000/svg">
<path d="M1.36958 39.1482C0.798933 39.1482 0.336331 38.1335 0.336331 36.8817C0.336331 35.63 0.798933 34.6152 1.36958 34.6152C1.94023 34.6152 2.40283 35.63 2.40283 36.8817C2.40283 38.1335 1.94023 39.1482 1.36958 39.1482Z" fill="#D9D9D9"/>
<path d="M10.0488 39.1482C9.47813 39.1482 9.01553 38.1335 9.01553 36.8817C9.01553 35.63 9.47813 34.6152 10.0488 34.6152C10.6194 34.6152 11.082 35.63 11.082 36.8817C11.082 38.1335 10.6194 39.1482 10.0488 39.1482Z" fill="#D9D9D9"/>
<path d="M11.3887 25.3794C12.9866 4.22718 8.32015 -0.34081 5.78715 0.01919C-0.0141491 0.01919 -0.364425 16.9259 0.185598 25.3794C0.60535 29.7861 1.48829 39.1956 1.66198 41.5806C1.83567 45.5552 1.1409 47.7586 6.04766 47.8015C10.9545 47.8449 9.60833 43.3084 9.82546 41.4509C10.4334 32.9832 11.3887 26.5457 11.3887 25.3794Z" fill="url(#paint0_linear_30_1045)"/>
<path d="M4.3255 8.78518C4.54653 8.78518 4.72571 8.58668 4.72571 8.34181C4.72571 8.09694 4.54653 7.89844 4.3255 7.89844C4.10447 7.89844 3.92529 8.09694 3.92529 8.34181C3.92529 8.58668 4.10447 8.78518 4.3255 8.78518Z" fill="#D9D9D9"/>
<path d="M4.3255 13.219C4.54653 13.219 4.72571 13.0205 4.72571 12.7756C4.72571 12.5308 4.54653 12.3323 4.3255 12.3323C4.10447 12.3323 3.92529 12.5308 3.92529 12.7756C3.92529 13.0205 4.10447 13.219 4.3255 13.219Z" fill="#D9D9D9"/>
<path d="M7.08234 8.78518C7.30337 8.78518 7.48255 8.58668 7.48255 8.34181C7.48255 8.09694 7.30337 7.89844 7.08234 7.89844C6.86131 7.89844 6.68213 8.09694 6.68213 8.34181C6.68213 8.58668 6.86131 8.78518 7.08234 8.78518Z" fill="#D9D9D9"/>
<path d="M7.08234 13.219C7.30337 13.219 7.48255 13.0205 7.48255 12.7756C7.48255 12.5308 7.30337 12.3323 7.08234 12.3323C6.86131 12.3323 6.68213 12.5308 6.68213 12.7756C6.68213 13.0205 6.86131 13.219 7.08234 13.219Z" fill="#D9D9D9"/>
<path d="M4.3255 34.9444C4.54653 34.9444 4.72571 34.7459 4.72571 34.501C4.72571 34.2561 4.54653 34.0576 4.3255 34.0576C4.10447 34.0576 3.92529 34.2561 3.92529 34.501C3.92529 34.7459 4.10447 34.9444 4.3255 34.9444Z" fill="#D9D9D9"/>
<path d="M4.3255 39.378C4.54653 39.378 4.72571 39.1794 4.72571 38.9346C4.72571 38.6897 4.54653 38.4912 4.3255 38.4912C4.10447 38.4912 3.92529 38.6897 3.92529 38.9346C3.92529 39.1794 4.10447 39.378 4.3255 39.378Z" fill="#D9D9D9"/>
<path d="M7.08234 34.9444C7.30337 34.9444 7.48255 34.7459 7.48255 34.501C7.48255 34.2561 7.30337 34.0576 7.08234 34.0576C6.86131 34.0576 6.68213 34.2561 6.68213 34.501C6.68213 34.7459 6.86131 34.9444 7.08234 34.9444Z" fill="#D9D9D9"/>
<path d="M7.08234 39.378C7.30337 39.378 7.48255 39.1794 7.48255 38.9346C7.48255 38.6897 7.30337 38.4912 7.08234 38.4912C6.86131 38.4912 6.68213 38.6897 6.68213 38.9346C6.68213 39.1794 6.86131 39.378 7.08234 39.378Z" fill="#D9D9D9"/>
<defs>
<linearGradient id="paint0_linear_30_1045" x1="5.85726" y1="0" x2="5.85726" y2="47.8018" gradientUnits="userSpaceOnUse">
<stop stop-color="#EA3B90"/>
<stop offset="1" stop-color="#A40050"/>
</linearGradient>
</defs>
</svg>
