<svg width="44" height="12" viewBox="0 0 44 12" fill="none" xmlns="http://www.w3.org/2000/svg">
<path d="M7.90894 1.36958C7.90894 0.798933 8.83634 0.33633 9.98035 0.336331C11.1244 0.336331 12.0518 0.798933 12.0518 1.36958C12.0518 1.94023 11.1244 2.40283 9.98035 2.40283C8.83634 2.40283 7.90894 1.94023 7.90894 1.36958Z" fill="#D9D9D9"/>
<path fill-rule="evenodd" clip-rule="evenodd" d="M9.52653 1.36958C9.66367 1.34875 9.81588 1.33633 9.98035 1.33633C10.1448 1.33633 10.297 1.34875 10.4342 1.36958C10.297 1.39042 10.1448 1.40283 9.98035 1.40283C9.81588 1.40283 9.66367 1.39042 9.52653 1.36958ZM9.98035 0.336331C8.83634 0.33633 7.90894 0.798933 7.90894 1.36958C7.90894 1.94023 8.83634 2.40283 9.98035 2.40283C11.1244 2.40283 12.0518 1.94023 12.0518 1.36958C12.0518 0.798933 11.1244 0.336331 9.98035 0.336331Z" fill="url(#paint0_linear_36_1428)"/>
<path d="M7.90894 10.0488C7.90894 9.47813 8.83634 9.01553 9.98035 9.01553C11.1244 9.01553 12.0518 9.47813 12.0518 10.0488C12.0518 10.6194 11.1244 11.082 9.98035 11.082C8.83634 11.082 7.90894 10.6194 7.90894 10.0488Z" fill="#D9D9D9"/>
<path fill-rule="evenodd" clip-rule="evenodd" d="M9.52653 10.0488C9.66367 10.0279 9.81588 10.0155 9.98035 10.0155C10.1448 10.0155 10.297 10.0279 10.4342 10.0488C10.297 10.0696 10.1448 10.082 9.98035 10.082C9.81588 10.082 9.66367 10.0696 9.52653 10.0488ZM9.98035 9.01553C8.83634 9.01553 7.90894 9.47813 7.90894 10.0488C7.90894 10.6194 8.83634 11.082 9.98035 11.082C11.1244 11.082 12.0518 10.6194 12.0518 10.0488C12.0518 9.47813 11.1244 9.01553 9.98035 9.01553Z" fill="url(#paint1_linear_36_1428)"/>
<path fill-rule="evenodd" clip-rule="evenodd" d="M20.575 9.38867L20.6572 9.39547C30.2041 10.1846 35.7364 9.3963 38.7511 8.26461C40.2481 7.70263 41.014 7.09736 41.3758 6.66763C41.5532 6.45697 41.629 6.29476 41.6612 6.19691C41.693 6.10002 41.6874 6.05094 41.6866 6.04477L41.67 5.9165L41.67 5.78715C41.67 5.41027 41.4726 4.83641 40.1911 4.1504C38.9177 3.46875 37.007 2.94078 34.6739 2.5813C30.0603 1.87046 24.4474 1.91115 20.6669 2.17825C16.6408 2.59778 8.04925 3.47997 5.84445 3.65566L5.81281 3.65818L5.7811 3.65969C5.29363 3.683 4.83744 3.69153 4.43576 3.69872L4.40918 3.69919C4.00787 3.70637 3.67588 3.71231 3.37285 3.72787C2.71864 3.76146 2.463 3.83397 2.35992 3.88339C2.35535 3.88558 2.35159 3.88751 2.34857 3.88913C2.34574 3.89064 2.34355 3.8919 2.34194 3.89286C2.3407 3.89359 2.33973 3.8942 2.33899 3.89467C2.33774 3.89547 2.33715 3.89591 2.33708 3.89596C2.33699 3.89602 2.33743 3.8957 2.33802 3.89516C2.33844 3.89479 2.33853 3.89468 2.33826 3.89495C2.33814 3.89508 2.33794 3.8953 2.33765 3.89561C2.33641 3.89698 2.32778 3.90657 2.31351 3.93004C2.29889 3.9541 2.27687 3.9952 2.25109 4.05965C2.13558 4.34838 2.00902 4.93543 1.99999 6.06367L1.99999 6.06382C1.9922 7.02781 2.19366 7.39684 2.27285 7.5065C2.33158 7.58783 2.42857 7.67982 2.7254 7.75236C3.06648 7.83572 3.51108 7.85281 4.11488 7.83451C4.19733 7.83201 4.29323 7.82798 4.39877 7.82354C4.85523 7.80432 5.49198 7.77752 6.0004 7.83472C9.89444 8.14146 13.3176 8.53448 15.8937 8.84986C16.5351 8.92839 17.1116 9.00053 17.6303 9.06544C18.1724 9.13328 18.6513 9.19321 19.0751 9.24426C19.4825 9.29333 19.8125 9.3309 20.0682 9.35602C20.1956 9.36854 20.2967 9.37717 20.3745 9.38254C20.413 9.3852 20.4425 9.38682 20.4641 9.38774C20.4839 9.38859 20.4928 9.38866 20.4928 9.38867L20.575 9.38867ZM5.80415 9.82546C5.47462 9.78331 5.05285 9.80007 4.58734 9.81855C2.65463 9.89532 -0.0318951 10.002 5.31642e-05 6.04766C0.0342368 1.77698 1.56415 1.74967 4.35528 1.69983C4.77099 1.69241 5.21469 1.68449 5.68558 1.66197C7.86532 1.48828 16.4649 0.605349 20.4924 0.185597C28.2184 -0.364426 43.67 -0.0141492 43.67 5.78715C43.999 8.32015 39.8241 12.9866 20.4924 11.3887C20.0892 11.3887 18.9967 11.252 17.3751 11.0491C14.7099 10.7157 10.6156 10.2034 5.80415 9.82546Z" fill="url(#paint2_linear_36_1428)"/>
<path d="M35.6588 4.3255C35.6588 4.54653 35.8402 4.72571 36.064 4.72571C36.2878 4.72571 36.4692 4.54653 36.4692 4.3255C36.4692 4.10447 36.2878 3.92529 36.064 3.92529C35.8402 3.92529 35.6588 4.10447 35.6588 4.3255Z" fill="#D9D9D9"/>
<path d="M31.6061 4.3255C31.6061 4.54653 31.7875 4.72571 32.0113 4.72571C32.2351 4.72571 32.4165 4.54653 32.4165 4.3255C32.4165 4.10447 32.2351 3.92529 32.0113 3.92529C31.7875 3.92529 31.6061 4.10447 31.6061 4.3255Z" fill="#D9D9D9"/>
<path d="M35.6588 7.08234C35.6588 7.30337 35.8402 7.48255 36.064 7.48255C36.2878 7.48255 36.4692 7.30337 36.4692 7.08234C36.4692 6.86131 36.2878 6.68213 36.064 6.68213C35.8402 6.68213 35.6588 6.86131 35.6588 7.08234Z" fill="#D9D9D9"/>
<path d="M31.6061 7.08234C31.6061 7.30337 31.7875 7.48255 32.0113 7.48255C32.2351 7.48255 32.4165 7.30337 32.4165 7.08234C32.4165 6.86131 32.2351 6.68213 32.0113 6.68213C31.7875 6.68213 31.6061 6.86131 31.6061 7.08234Z" fill="#D9D9D9"/>
<path d="M11.7506 4.3255C11.7506 4.54653 11.932 4.72571 12.1558 4.72571C12.3796 4.72571 12.561 4.54653 12.561 4.3255C12.561 4.10447 12.3796 3.92529 12.1558 3.92529C11.932 3.92529 11.7506 4.10447 11.7506 4.3255Z" fill="#D9D9D9"/>
<path d="M7.69885 4.3255C7.69885 4.54653 7.88027 4.72571 8.10407 4.72571C8.32786 4.72571 8.50928 4.54653 8.50928 4.3255C8.50928 4.10447 8.32786 3.92529 8.10407 3.92529C7.88027 3.92529 7.69885 4.10447 7.69885 4.3255Z" fill="#D9D9D9"/>
<path d="M11.7506 7.08234C11.7506 7.30337 11.932 7.48255 12.1558 7.48255C12.3796 7.48255 12.561 7.30337 12.561 7.08234C12.561 6.86131 12.3796 6.68213 12.1558 6.68213C11.932 6.68213 11.7506 6.86131 11.7506 7.08234Z" fill="#D9D9D9"/>
<path d="M7.69885 7.08234C7.69885 7.30337 7.88027 7.48255 8.10407 7.48255C8.32786 7.48255 8.50928 7.30337 8.50928 7.08234C8.50928 6.86131 8.32786 6.68213 8.10407 6.68213C7.88027 6.68213 7.69885 6.86131 7.69885 7.08234Z" fill="#D9D9D9"/>
<defs>
<linearGradient id="paint0_linear_36_1428" x1="12.0518" y1="1.36958" x2="7.90894" y2="1.36958" gradientUnits="userSpaceOnUse">
<stop stop-color="#EE5931"/>
<stop offset="1" stop-color="#B32A05"/>
</linearGradient>
<linearGradient id="paint1_linear_36_1428" x1="12.0518" y1="10.0488" x2="7.90894" y2="10.0488" gradientUnits="userSpaceOnUse">
<stop stop-color="#EE5931"/>
<stop offset="1" stop-color="#B32A05"/>
</linearGradient>
<linearGradient id="paint2_linear_36_1428" x1="43.6875" y1="5.85726" x2="-0.000229116" y2="5.85726" gradientUnits="userSpaceOnUse">
<stop stop-color="#EE5931"/>
<stop offset="1" stop-color="#B32A05"/>
</linearGradient>
</defs>
</svg>
