<svg width="44" height="12" viewBox="0 0 44 12" fill="none" xmlns="http://www.w3.org/2000/svg">
<path fill-rule="evenodd" clip-rule="evenodd" d="M9.52506 1.36958C9.66221 1.34875 9.81442 1.33633 9.97888 1.33633C10.1434 1.33633 10.2956 1.34875 10.4327 1.36958C10.2956 1.39042 10.1434 1.40283 9.97888 1.40283C9.81442 1.40283 9.66221 1.39042 9.52506 1.36958ZM9.97888 0.336331C8.83488 0.33633 7.90747 0.798933 7.90747 1.36958C7.90747 1.94023 8.83488 2.40283 9.97888 2.40283C11.1229 2.40283 12.0503 1.94023 12.0503 1.36958C12.0503 0.798933 11.1229 0.336331 9.97888 0.336331Z" fill="url(#paint0_linear_40_721)"/>
<path fill-rule="evenodd" clip-rule="evenodd" d="M9.52506 10.0488C9.66221 10.0279 9.81442 10.0155 9.97888 10.0155C10.1434 10.0155 10.2956 10.0279 10.4327 10.0488C10.2956 10.0696 10.1434 10.082 9.97888 10.082C9.81442 10.082 9.66221 10.0696 9.52506 10.0488ZM9.97888 9.01553C8.83488 9.01553 7.90747 9.47813 7.90747 10.0488C7.90747 10.6194 8.83488 11.082 9.97888 11.082C11.1229 11.082 12.0503 10.6194 12.0503 10.0488C12.0503 9.47813 11.1229 9.01553 9.97888 9.01553Z" fill="url(#paint1_linear_40_721)"/>
<path fill-rule="evenodd" clip-rule="evenodd" d="M20.5735 9.38867L20.6557 9.39547C30.2026 10.1846 35.735 9.3963 38.7496 8.26461C40.2466 7.70263 41.0126 7.09736 41.3744 6.66763C41.5517 6.45697 41.6276 6.29476 41.6597 6.19691C41.6915 6.10002 41.686 6.05094 41.6852 6.04477L41.6685 5.9165L41.6685 5.78715C41.6685 5.41027 41.4711 4.83641 40.1896 4.1504C38.9162 3.46875 37.0055 2.94078 34.6724 2.5813C30.0588 1.87046 24.4459 1.91115 20.6654 2.17825C16.6394 2.59778 8.04778 3.47997 5.84299 3.65566L5.81134 3.65818L5.77964 3.65969C5.29216 3.683 4.83598 3.69153 4.43429 3.69872L4.40772 3.69919C4.0064 3.70637 3.67441 3.71231 3.37138 3.72787C2.71718 3.76146 2.46154 3.83397 2.35845 3.88339C2.35388 3.88558 2.35013 3.88751 2.34711 3.88913C2.34428 3.89064 2.34209 3.8919 2.34047 3.89286C2.33924 3.89359 2.33826 3.8942 2.33752 3.89467C2.33628 3.89547 2.33569 3.89591 2.33562 3.89596C2.33553 3.89602 2.33596 3.8957 2.33656 3.89516C2.33697 3.89479 2.33706 3.89468 2.3368 3.89495C2.33667 3.89508 2.33647 3.8953 2.33619 3.89561C2.33494 3.89698 2.32631 3.90657 2.31205 3.93004C2.29742 3.9541 2.27541 3.9952 2.24962 4.05965C2.13411 4.34838 2.00756 4.93543 1.99853 6.06367L1.99852 6.06382C1.99074 7.02781 2.19219 7.39684 2.27139 7.5065C2.33012 7.58783 2.4271 7.67982 2.72393 7.75236C3.06501 7.83572 3.50961 7.85281 4.11342 7.83451C4.19587 7.83201 4.29176 7.82798 4.3973 7.82354C4.85376 7.80432 5.49052 7.77752 5.99894 7.83472C9.89298 8.14146 13.3161 8.53448 15.8922 8.84986C16.5336 8.92839 17.1101 9.00053 17.6288 9.06544C18.1709 9.13328 18.6499 9.19321 19.0737 9.24426C19.481 9.29333 19.8111 9.3309 20.0667 9.35602C20.1942 9.36854 20.2952 9.37717 20.3731 9.38254C20.4116 9.3852 20.441 9.38682 20.4626 9.38774C20.4825 9.38859 20.4914 9.38866 20.4914 9.38867L20.5735 9.38867ZM5.80269 9.82546C5.47316 9.78331 5.05138 9.80007 4.58588 9.81855C2.65317 9.89532 -0.0333599 10.002 -0.00141168 6.04766C0.032772 1.77698 1.56269 1.74967 4.35381 1.69983C4.76953 1.69241 5.21322 1.68449 5.68412 1.66197C7.86385 1.48828 16.4635 0.605349 20.491 0.185597C28.2169 -0.364426 43.6685 -0.0141492 43.6685 5.78715C43.9975 8.32015 39.8227 12.9866 20.491 11.3887C20.0877 11.3887 18.9952 11.252 17.3736 11.0491C14.7084 10.7157 10.6142 10.2034 5.80269 9.82546Z" fill="url(#paint2_linear_40_721)"/>
<path d="M35.6573 4.3255C35.6573 4.54653 35.8388 4.72571 36.0626 4.72571C36.2864 4.72571 36.4678 4.54653 36.4678 4.3255C36.4678 4.10447 36.2864 3.92529 36.0626 3.92529C35.8388 3.92529 35.6573 4.10447 35.6573 4.3255Z" fill="#D9D9D9"/>
<path d="M31.6046 4.3255C31.6046 4.54653 31.786 4.72571 32.0098 4.72571C32.2336 4.72571 32.415 4.54653 32.415 4.3255C32.415 4.10447 32.2336 3.92529 32.0098 3.92529C31.786 3.92529 31.6046 4.10447 31.6046 4.3255Z" fill="#D9D9D9"/>
<path d="M35.6573 7.08234C35.6573 7.30337 35.8388 7.48255 36.0626 7.48255C36.2864 7.48255 36.4678 7.30337 36.4678 7.08234C36.4678 6.86131 36.2864 6.68213 36.0626 6.68213C35.8388 6.68213 35.6573 6.86131 35.6573 7.08234Z" fill="#D9D9D9"/>
<path d="M31.6046 7.08234C31.6046 7.30337 31.786 7.48255 32.0098 7.48255C32.2336 7.48255 32.415 7.30337 32.415 7.08234C32.415 6.86131 32.2336 6.68213 32.0098 6.68213C31.786 6.68213 31.6046 6.86131 31.6046 7.08234Z" fill="#D9D9D9"/>
<path d="M11.7491 4.3255C11.7491 4.54653 11.9306 4.72571 12.1544 4.72571C12.3782 4.72571 12.5596 4.54653 12.5596 4.3255C12.5596 4.10447 12.3782 3.92529 12.1544 3.92529C11.9306 3.92529 11.7491 4.10447 11.7491 4.3255Z" fill="#D9D9D9"/>
<path d="M7.69739 4.3255C7.69739 4.54653 7.87881 4.72571 8.1026 4.72571C8.3264 4.72571 8.50781 4.54653 8.50781 4.3255C8.50781 4.10447 8.3264 3.92529 8.1026 3.92529C7.87881 3.92529 7.69739 4.10447 7.69739 4.3255Z" fill="#D9D9D9"/>
<path d="M11.7491 7.08234C11.7491 7.30337 11.9306 7.48255 12.1544 7.48255C12.3782 7.48255 12.5596 7.30337 12.5596 7.08234C12.5596 6.86131 12.3782 6.68213 12.1544 6.68213C11.9306 6.68213 11.7491 6.86131 11.7491 7.08234Z" fill="#D9D9D9"/>
<path d="M7.69739 7.08234C7.69739 7.30337 7.87881 7.48255 8.1026 7.48255C8.3264 7.48255 8.50781 7.30337 8.50781 7.08234C8.50781 6.86131 8.3264 6.68213 8.1026 6.68213C7.87881 6.68213 7.69739 6.86131 7.69739 7.08234Z" fill="#D9D9D9"/>
<defs>
<linearGradient id="paint0_linear_40_721" x1="12.0503" y1="1.36958" x2="7.90747" y2="1.36958" gradientUnits="userSpaceOnUse">
<stop stop-color="#EA3B90"/>
<stop offset="1" stop-color="#A40050"/>
</linearGradient>
<linearGradient id="paint1_linear_40_721" x1="12.0503" y1="10.0488" x2="7.90747" y2="10.0488" gradientUnits="userSpaceOnUse">
<stop stop-color="#EA3B90"/>
<stop offset="1" stop-color="#A40050"/>
</linearGradient>
<linearGradient id="paint2_linear_40_721" x1="43.686" y1="5.85726" x2="-0.00169396" y2="5.85726" gradientUnits="userSpaceOnUse">
<stop stop-color="#EA3B90"/>
<stop offset="1" stop-color="#A40050"/>
</linearGradient>
</defs>
</svg>
