<svg width="12" height="48" viewBox="0 0 12 48" fill="none" xmlns="http://www.w3.org/2000/svg">
<path d="M1.36909 39.1482C0.798445 39.1482 0.335842 38.1335 0.335842 36.8817C0.335842 35.63 0.798445 34.6152 1.36909 34.6152C1.93974 34.6152 2.40234 35.63 2.40234 36.8817C2.40234 38.1335 1.93974 39.1482 1.36909 39.1482Z" fill="#D9D9D9"/>
<path d="M10.0488 39.1482C9.47813 39.1482 9.01553 38.1335 9.01553 36.8817C9.01553 35.63 9.47813 34.6152 10.0488 34.6152C10.6194 34.6152 11.082 35.63 11.082 36.8817C11.082 38.1335 10.6194 39.1482 10.0488 39.1482Z" fill="#D9D9D9"/>
<path d="M11.3887 25.3794C12.9866 4.22718 8.32015 -0.34081 5.78715 0.01919C-0.0141492 0.01919 -0.364425 16.9259 0.185598 25.3794C0.60535 29.7861 1.48829 39.1956 1.66198 41.5806C1.83567 45.5552 1.1409 47.7586 6.04766 47.8015C10.9545 47.8449 9.60833 43.3084 9.82546 41.4509C10.4334 32.9832 11.3887 26.5457 11.3887 25.3794Z" fill="url(#paint0_linear_42_1496)"/>
<path d="M4.32501 8.7853C4.54604 8.7853 4.72522 8.5868 4.72522 8.34193C4.72522 8.09706 4.54604 7.89856 4.32501 7.89856C4.10398 7.89856 3.9248 8.09706 3.9248 8.34193C3.9248 8.5868 4.10398 8.7853 4.32501 8.7853Z" fill="#D9D9D9"/>
<path d="M4.32501 13.219C4.54604 13.219 4.72522 13.0205 4.72522 12.7756C4.72522 12.5308 4.54604 12.3323 4.32501 12.3323C4.10398 12.3323 3.9248 12.5308 3.9248 12.7756C3.9248 13.0205 4.10398 13.219 4.32501 13.219Z" fill="#D9D9D9"/>
<path d="M7.08185 8.7853C7.30288 8.7853 7.48206 8.5868 7.48206 8.34193C7.48206 8.09706 7.30288 7.89856 7.08185 7.89856C6.86082 7.89856 6.68164 8.09706 6.68164 8.34193C6.68164 8.5868 6.86082 8.7853 7.08185 8.7853Z" fill="#D9D9D9"/>
<path d="M7.08185 13.219C7.30288 13.219 7.48206 13.0205 7.48206 12.7756C7.48206 12.5308 7.30288 12.3323 7.08185 12.3323C6.86082 12.3323 6.68164 12.5308 6.68164 12.7756C6.68164 13.0205 6.86082 13.219 7.08185 13.219Z" fill="#D9D9D9"/>
<path d="M4.32501 34.9444C4.54604 34.9444 4.72522 34.7459 4.72522 34.501C4.72522 34.2561 4.54604 34.0576 4.32501 34.0576C4.10398 34.0576 3.9248 34.2561 3.9248 34.501C3.9248 34.7459 4.10398 34.9444 4.32501 34.9444Z" fill="#D9D9D9"/>
<path d="M4.32501 39.3778C4.54604 39.3778 4.72522 39.1793 4.72522 38.9345C4.72522 38.6896 4.54604 38.4911 4.32501 38.4911C4.10398 38.4911 3.9248 38.6896 3.9248 38.9345C3.9248 39.1793 4.10398 39.3778 4.32501 39.3778Z" fill="#D9D9D9"/>
<path d="M7.08185 34.9444C7.30288 34.9444 7.48206 34.7459 7.48206 34.501C7.48206 34.2561 7.30288 34.0576 7.08185 34.0576C6.86082 34.0576 6.68164 34.2561 6.68164 34.501C6.68164 34.7459 6.86082 34.9444 7.08185 34.9444Z" fill="#D9D9D9"/>
<path d="M7.08185 39.3778C7.30288 39.3778 7.48206 39.1793 7.48206 38.9345C7.48206 38.6896 7.30288 38.4911 7.08185 38.4911C6.86082 38.4911 6.68164 38.6896 6.68164 38.9345C6.68164 39.1793 6.86082 39.3778 7.08185 39.3778Z" fill="#D9D9D9"/>
<defs>
<linearGradient id="paint0_linear_42_1496" x1="5.85726" y1="0" x2="5.85726" y2="47.8018" gradientUnits="userSpaceOnUse">
<stop stop-color="#EE5931"/>
<stop offset="1" stop-color="#B32A05"/>
</linearGradient>
</defs>
</svg>
